<svg xmlns="http://www.w3.org/2000/svg" width="600" height="900" viewBox="0 0 600 900">
  <defs>
    <linearGradient id="bg" x1="0" y1="0" x2="0" y2="1">
      <stop offset="0%" stop-color="#60a5fa"/>
      <stop offset="50%" stop-color="#1e3a8a"/>
      <stop offset="100%" stop-color="#0c1e4a"/>
    </linearGradient>
    <radialGradient id="glow" cx="50%" cy="50%" r="50%">
      <stop offset="0%" stop-color="white" stop-opacity="0.15"/>
      <stop offset="100%" stop-color="white" stop-opacity="0"/>
    </radialGradient>
  </defs>
  <rect width="600" height="900" fill="url(#bg)"/>
  <ellipse cx="300" cy="450" rx="280" ry="320" fill="url(#glow)"/>
  <g><path d="M150 700 L150 200 L130 220 L130 720 Z M150 700 L150 200 L170 220 L170 720 Z M140 720 L160 720 L150 740 Z M120 200 L180 200 L180 180 L120 180 Z" fill="white" opacity="0.85"/><circle cx="150" cy="180" r="8" fill="white"/></g>
  <text x="300" y="130" text-anchor="middle" fill="white" font-family="system-ui,sans-serif" font-weight="900" font-size="38" style="text-shadow: 0 2px 10px rgba(0,0,0,0.85)">Sobrevivência do</text><text x="300" y="170" text-anchor="middle" fill="white" font-family="system-ui,sans-serif" font-weight="900" font-size="38" style="text-shadow: 0 2px 10px rgba(0,0,0,0.85)">Gênio com Tempo</text><text x="300" y="210" text-anchor="middle" fill="white" font-family="system-ui,sans-serif" font-weight="900" font-size="38" style="text-shadow: 0 2px 10px rgba(0,0,0,0.85)">de Vida Limitado</text>
  <rect x="40" y="820" width="520" height="2" fill="white" opacity="0.3"/>
  <text x="300" y="860" text-anchor="middle" fill="white" opacity="0.6" font-family="system-ui" font-size="16">TOMOVERSO</text>
</svg>