<?xml version="1.0" encoding="UTF-8"?>
<svg xmlns="http://www.w3.org/2000/svg" viewBox="0 0 300 450" width="600" height="900" role="img" aria-labelledby="title desc">
  <title id="title">A Biblioteca dos Corações Perdidos</title>
  <desc id="desc">Garota em biblioteca noturna com livros brilhantes, cartas flutuantes e garoto entre estantes infinitas.</desc>
  <defs>
    <linearGradient id="bg" x1="0" y1="0" x2="1" y2="1">
      <stop offset="0%" stop-color="#450a0a"/>
      <stop offset="58%" stop-color="#dc2626"/>
      <stop offset="100%" stop-color="#fbbf24"/>
    </linearGradient>
    <radialGradient id="glow" cx="50%" cy="35%" r="60%">
      <stop offset="0%" stop-color="#ffffff" stop-opacity="0.42"/>
      <stop offset="100%" stop-color="#ffffff" stop-opacity="0"/>
    </radialGradient>
    <linearGradient id="shade" x1="0" y1="0" x2="0" y2="1">
      <stop offset="0%" stop-color="#000000" stop-opacity="0.05"/>
      <stop offset="55%" stop-color="#000000" stop-opacity="0.1"/>
      <stop offset="100%" stop-color="#000000" stop-opacity="0.88"/>
    </linearGradient>
    <filter id="grain" x="-20%" y="-20%" width="140%" height="140%">
      <feTurbulence type="fractalNoise" baseFrequency="0.85" numOctaves="3" stitchTiles="stitch"/>
      <feColorMatrix type="saturate" values="0"/>
      <feComponentTransfer><feFuncA type="table" tableValues="0 0.12"/></feComponentTransfer>
    </filter>
  </defs>
  <rect width="300" height="450" fill="url(#bg)"/>
  <rect width="300" height="450" fill="url(#glow)"/>
  <circle cx="102" cy="174" r="0.8" fill="#fff" opacity="0.51"/>
<circle cx="185" cy="221" r="1.8" fill="#fff" opacity="0.40"/>
<circle cx="268" cy="268" r="2.8" fill="#fff" opacity="0.29"/>
<circle cx="51" cy="45" r="0.8" fill="#fff" opacity="0.18"/>
<circle cx="134" cy="92" r="1.8" fill="#fff" opacity="0.57"/>
<circle cx="217" cy="139" r="2.8" fill="#fff" opacity="0.46"/>
<circle cx="0" cy="186" r="0.8" fill="#fff" opacity="0.35"/>
<circle cx="83" cy="233" r="1.8" fill="#fff" opacity="0.24"/>
<circle cx="166" cy="10" r="2.8" fill="#fff" opacity="0.62"/>
<circle cx="249" cy="57" r="0.8" fill="#fff" opacity="0.51"/>
<circle cx="32" cy="104" r="1.8" fill="#fff" opacity="0.40"/>
<circle cx="115" cy="151" r="2.8" fill="#fff" opacity="0.29"/>
<circle cx="198" cy="198" r="0.8" fill="#fff" opacity="0.18"/>
<circle cx="281" cy="245" r="1.8" fill="#fff" opacity="0.57"/>
<circle cx="64" cy="22" r="2.8" fill="#fff" opacity="0.46"/>
<circle cx="147" cy="69" r="0.8" fill="#fff" opacity="0.35"/>
<circle cx="230" cy="116" r="1.8" fill="#fff" opacity="0.24"/>
<circle cx="13" cy="163" r="2.8" fill="#fff" opacity="0.62"/>
<circle cx="96" cy="210" r="0.8" fill="#fff" opacity="0.51"/>
<circle cx="179" cy="257" r="1.8" fill="#fff" opacity="0.40"/>
<circle cx="262" cy="34" r="2.8" fill="#fff" opacity="0.29"/>
<circle cx="45" cy="81" r="0.8" fill="#fff" opacity="0.18"/>
<circle cx="128" cy="128" r="1.8" fill="#fff" opacity="0.57"/>
<circle cx="211" cy="175" r="2.8" fill="#fff" opacity="0.46"/>
<circle cx="294" cy="222" r="0.8" fill="#fff" opacity="0.35"/>
<circle cx="77" cy="269" r="1.8" fill="#fff" opacity="0.24"/>
<circle cx="160" cy="46" r="2.8" fill="#fff" opacity="0.62"/>
<circle cx="243" cy="93" r="0.8" fill="#fff" opacity="0.51"/>
<circle cx="26" cy="140" r="1.8" fill="#fff" opacity="0.40"/>
<circle cx="109" cy="187" r="2.8" fill="#fff" opacity="0.29"/>
<circle cx="192" cy="234" r="0.8" fill="#fff" opacity="0.18"/>
<circle cx="275" cy="11" r="1.8" fill="#fff" opacity="0.57"/>
<circle cx="58" cy="58" r="2.8" fill="#fff" opacity="0.46"/>
<circle cx="141" cy="105" r="0.8" fill="#fff" opacity="0.35"/>
  <g transform="translate(0 6)" opacity="0.95">
    <path d="M35 200 C75 145 125 155 150 205 C175 155 225 145 265 200 C222 265 180 310 150 335 C120 310 78 265 35 200 Z" fill="#ffffff" opacity="0.12"/>
    <path d="M35 200 C75 145 125 155 150 205 C175 155 225 145 265 200 C222 265 180 310 150 335 C120 310 78 265 35 200 Z" fill="none" stroke="#ffffff" stroke-width="3" opacity="0.42"/>
  </g>
  <circle cx="240" cy="78" r="42" fill="#fff" opacity="0.12"/>
  <path d="M-20 356 C65 320 110 372 182 338 C230 315 260 300 330 335 L330 450 L-20 450 Z" fill="#000" opacity="0.28"/>
  <rect width="300" height="450" fill="url(#shade)"/>
  <rect width="300" height="450" filter="url(#grain)" opacity="0.45"/>
  <text x="150" y="278" text-anchor="middle" font-family="Arial, sans-serif" font-size="10" font-weight="700" letter-spacing="2.5" fill="#ffffff" opacity="0.75">TOMOVERSO ORIGINAL</text>
  <text x="150" y="305" text-anchor="middle" font-family="Georgia, serif" font-size="24" font-weight="800" fill="#ffffff">A Biblioteca dos</text>
<text x="150" y="331" text-anchor="middle" font-family="Georgia, serif" font-size="24" font-weight="800" fill="#ffffff">Corações Perdidos</text>
  <text x="150" y="420" text-anchor="middle" font-family="Arial, sans-serif" font-size="10" font-weight="700" letter-spacing="1.8" fill="#ffffff" opacity="0.72">ROMANCE</text>
</svg>