<?xml version="1.0" encoding="UTF-8"?>
<svg xmlns="http://www.w3.org/2000/svg" viewBox="0 0 300 450" width="600" height="900" role="img" aria-labelledby="title desc">
  <title id="title">A Bruxa do Clube Fantasma</title>
  <desc id="desc">Clube escolar bagunçado com bruxa, livros flutuantes, monstro fofo e alunos assustados.</desc>
  <defs>
    <linearGradient id="bg" x1="0" y1="0" x2="1" y2="1">
      <stop offset="0%" stop-color="#111827"/>
      <stop offset="58%" stop-color="#ef4444"/>
      <stop offset="100%" stop-color="#f59e0b"/>
    </linearGradient>
    <radialGradient id="glow" cx="50%" cy="35%" r="60%">
      <stop offset="0%" stop-color="#ffffff" stop-opacity="0.42"/>
      <stop offset="100%" stop-color="#ffffff" stop-opacity="0"/>
    </radialGradient>
    <linearGradient id="shade" x1="0" y1="0" x2="0" y2="1">
      <stop offset="0%" stop-color="#000000" stop-opacity="0.05"/>
      <stop offset="55%" stop-color="#000000" stop-opacity="0.1"/>
      <stop offset="100%" stop-color="#000000" stop-opacity="0.88"/>
    </linearGradient>
    <filter id="grain" x="-20%" y="-20%" width="140%" height="140%">
      <feTurbulence type="fractalNoise" baseFrequency="0.85" numOctaves="3" stitchTiles="stitch"/>
      <feColorMatrix type="saturate" values="0"/>
      <feComponentTransfer><feFuncA type="table" tableValues="0 0.12"/></feComponentTransfer>
    </filter>
  </defs>
  <rect width="300" height="450" fill="url(#bg)"/>
  <rect width="300" height="450" fill="url(#glow)"/>
  <circle cx="221" cy="107" r="1.8" fill="#fff" opacity="0.40"/>
<circle cx="4" cy="154" r="2.8" fill="#fff" opacity="0.29"/>
<circle cx="87" cy="201" r="0.8" fill="#fff" opacity="0.18"/>
<circle cx="170" cy="248" r="1.8" fill="#fff" opacity="0.57"/>
<circle cx="253" cy="25" r="2.8" fill="#fff" opacity="0.46"/>
<circle cx="36" cy="72" r="0.8" fill="#fff" opacity="0.35"/>
<circle cx="119" cy="119" r="1.8" fill="#fff" opacity="0.24"/>
<circle cx="202" cy="166" r="2.8" fill="#fff" opacity="0.62"/>
<circle cx="285" cy="213" r="0.8" fill="#fff" opacity="0.51"/>
<circle cx="68" cy="260" r="1.8" fill="#fff" opacity="0.40"/>
<circle cx="151" cy="37" r="2.8" fill="#fff" opacity="0.29"/>
<circle cx="234" cy="84" r="0.8" fill="#fff" opacity="0.18"/>
<circle cx="17" cy="131" r="1.8" fill="#fff" opacity="0.57"/>
<circle cx="100" cy="178" r="2.8" fill="#fff" opacity="0.46"/>
<circle cx="183" cy="225" r="0.8" fill="#fff" opacity="0.35"/>
<circle cx="266" cy="2" r="1.8" fill="#fff" opacity="0.24"/>
<circle cx="49" cy="49" r="2.8" fill="#fff" opacity="0.62"/>
<circle cx="132" cy="96" r="0.8" fill="#fff" opacity="0.51"/>
<circle cx="215" cy="143" r="1.8" fill="#fff" opacity="0.40"/>
<circle cx="298" cy="190" r="2.8" fill="#fff" opacity="0.29"/>
<circle cx="81" cy="237" r="0.8" fill="#fff" opacity="0.18"/>
<circle cx="164" cy="14" r="1.8" fill="#fff" opacity="0.57"/>
<circle cx="247" cy="61" r="2.8" fill="#fff" opacity="0.46"/>
<circle cx="30" cy="108" r="0.8" fill="#fff" opacity="0.35"/>
<circle cx="113" cy="155" r="1.8" fill="#fff" opacity="0.24"/>
<circle cx="196" cy="202" r="2.8" fill="#fff" opacity="0.62"/>
<circle cx="279" cy="249" r="0.8" fill="#fff" opacity="0.51"/>
<circle cx="62" cy="26" r="1.8" fill="#fff" opacity="0.40"/>
<circle cx="145" cy="73" r="2.8" fill="#fff" opacity="0.29"/>
<circle cx="228" cy="120" r="0.8" fill="#fff" opacity="0.18"/>
<circle cx="11" cy="167" r="1.8" fill="#fff" opacity="0.57"/>
<circle cx="94" cy="214" r="2.8" fill="#fff" opacity="0.46"/>
<circle cx="177" cy="261" r="0.8" fill="#fff" opacity="0.35"/>
<circle cx="260" cy="38" r="1.8" fill="#fff" opacity="0.24"/>
  <g transform="translate(0 6)" opacity="0.95">
    <path d="M70 320 L70 160 L115 160 L115 95 L150 95 L150 320 Z M165 320 L165 125 L220 125 L220 320 Z" fill="#ffffff" opacity="0.12"/>
    <path d="M70 320 L70 160 L115 160 L115 95 L150 95 L150 320 Z M165 320 L165 125 L220 125 L220 320 Z" fill="none" stroke="#ffffff" stroke-width="3" opacity="0.42"/>
  </g>
  <circle cx="240" cy="78" r="42" fill="#fff" opacity="0.12"/>
  <path d="M-20 356 C65 320 110 372 182 338 C230 315 260 300 330 335 L330 450 L-20 450 Z" fill="#000" opacity="0.28"/>
  <rect width="300" height="450" fill="url(#shade)"/>
  <rect width="300" height="450" filter="url(#grain)" opacity="0.45"/>
  <text x="150" y="278" text-anchor="middle" font-family="Arial, sans-serif" font-size="10" font-weight="700" letter-spacing="2.5" fill="#ffffff" opacity="0.75">TOMOVERSO ORIGINAL</text>
  <text x="150" y="305" text-anchor="middle" font-family="Georgia, serif" font-size="24" font-weight="800" fill="#ffffff">A Bruxa do Clube</text>
<text x="150" y="331" text-anchor="middle" font-family="Georgia, serif" font-size="24" font-weight="800" fill="#ffffff">Fantasma</text>
  <text x="150" y="420" text-anchor="middle" font-family="Arial, sans-serif" font-size="10" font-weight="700" letter-spacing="1.8" fill="#ffffff" opacity="0.72">FANTASIA URBANA</text>
</svg>