<?xml version="1.0" encoding="UTF-8"?>
<svg xmlns="http://www.w3.org/2000/svg" viewBox="0 0 300 450" width="600" height="900" role="img" aria-labelledby="title desc">
  <title id="title">A Herdeira dos Monstros Fofos</title>
  <desc id="desc">Garota diante de mansão mágica cercada por monstros fofos coloridos e caóticos.</desc>
  <defs>
    <linearGradient id="bg" x1="0" y1="0" x2="1" y2="1">
      <stop offset="0%" stop-color="#312e81"/>
      <stop offset="58%" stop-color="#a855f7"/>
      <stop offset="100%" stop-color="#22d3ee"/>
    </linearGradient>
    <radialGradient id="glow" cx="50%" cy="35%" r="60%">
      <stop offset="0%" stop-color="#ffffff" stop-opacity="0.42"/>
      <stop offset="100%" stop-color="#ffffff" stop-opacity="0"/>
    </radialGradient>
    <linearGradient id="shade" x1="0" y1="0" x2="0" y2="1">
      <stop offset="0%" stop-color="#000000" stop-opacity="0.05"/>
      <stop offset="55%" stop-color="#000000" stop-opacity="0.1"/>
      <stop offset="100%" stop-color="#000000" stop-opacity="0.88"/>
    </linearGradient>
    <filter id="grain" x="-20%" y="-20%" width="140%" height="140%">
      <feTurbulence type="fractalNoise" baseFrequency="0.85" numOctaves="3" stitchTiles="stitch"/>
      <feColorMatrix type="saturate" values="0"/>
      <feComponentTransfer><feFuncA type="table" tableValues="0 0.12"/></feComponentTransfer>
    </filter>
  </defs>
  <rect width="300" height="450" fill="url(#bg)"/>
  <rect width="300" height="450" fill="url(#glow)"/>
  <circle cx="46" cy="22" r="2.8" fill="#fff" opacity="0.29"/>
<circle cx="129" cy="69" r="0.8" fill="#fff" opacity="0.18"/>
<circle cx="212" cy="116" r="1.8" fill="#fff" opacity="0.57"/>
<circle cx="295" cy="163" r="2.8" fill="#fff" opacity="0.46"/>
<circle cx="78" cy="210" r="0.8" fill="#fff" opacity="0.35"/>
<circle cx="161" cy="257" r="1.8" fill="#fff" opacity="0.24"/>
<circle cx="244" cy="34" r="2.8" fill="#fff" opacity="0.62"/>
<circle cx="27" cy="81" r="0.8" fill="#fff" opacity="0.51"/>
<circle cx="110" cy="128" r="1.8" fill="#fff" opacity="0.40"/>
<circle cx="193" cy="175" r="2.8" fill="#fff" opacity="0.29"/>
<circle cx="276" cy="222" r="0.8" fill="#fff" opacity="0.18"/>
<circle cx="59" cy="269" r="1.8" fill="#fff" opacity="0.57"/>
<circle cx="142" cy="46" r="2.8" fill="#fff" opacity="0.46"/>
<circle cx="225" cy="93" r="0.8" fill="#fff" opacity="0.35"/>
<circle cx="8" cy="140" r="1.8" fill="#fff" opacity="0.24"/>
<circle cx="91" cy="187" r="2.8" fill="#fff" opacity="0.62"/>
<circle cx="174" cy="234" r="0.8" fill="#fff" opacity="0.51"/>
<circle cx="257" cy="11" r="1.8" fill="#fff" opacity="0.40"/>
<circle cx="40" cy="58" r="2.8" fill="#fff" opacity="0.29"/>
<circle cx="123" cy="105" r="0.8" fill="#fff" opacity="0.18"/>
<circle cx="206" cy="152" r="1.8" fill="#fff" opacity="0.57"/>
<circle cx="289" cy="199" r="2.8" fill="#fff" opacity="0.46"/>
<circle cx="72" cy="246" r="0.8" fill="#fff" opacity="0.35"/>
<circle cx="155" cy="23" r="1.8" fill="#fff" opacity="0.24"/>
<circle cx="238" cy="70" r="2.8" fill="#fff" opacity="0.62"/>
<circle cx="21" cy="117" r="0.8" fill="#fff" opacity="0.51"/>
<circle cx="104" cy="164" r="1.8" fill="#fff" opacity="0.40"/>
<circle cx="187" cy="211" r="2.8" fill="#fff" opacity="0.29"/>
<circle cx="270" cy="258" r="0.8" fill="#fff" opacity="0.18"/>
<circle cx="53" cy="35" r="1.8" fill="#fff" opacity="0.57"/>
<circle cx="136" cy="82" r="2.8" fill="#fff" opacity="0.46"/>
<circle cx="219" cy="129" r="0.8" fill="#fff" opacity="0.35"/>
<circle cx="2" cy="176" r="1.8" fill="#fff" opacity="0.24"/>
<circle cx="85" cy="223" r="2.8" fill="#fff" opacity="0.62"/>
  <g transform="translate(0 6)" opacity="0.95">
    <path d="M150 45 L172 130 L255 145 L185 190 L205 275 L150 225 L95 275 L115 190 L45 145 L128 130 Z" fill="#ffffff" opacity="0.12"/>
    <path d="M150 45 L172 130 L255 145 L185 190 L205 275 L150 225 L95 275 L115 190 L45 145 L128 130 Z" fill="none" stroke="#ffffff" stroke-width="3" opacity="0.42"/>
  </g>
  <circle cx="240" cy="78" r="42" fill="#fff" opacity="0.12"/>
  <path d="M-20 356 C65 320 110 372 182 338 C230 315 260 300 330 335 L330 450 L-20 450 Z" fill="#000" opacity="0.28"/>
  <rect width="300" height="450" fill="url(#shade)"/>
  <rect width="300" height="450" filter="url(#grain)" opacity="0.45"/>
  <text x="150" y="278" text-anchor="middle" font-family="Arial, sans-serif" font-size="10" font-weight="700" letter-spacing="2.5" fill="#ffffff" opacity="0.75">TOMOVERSO ORIGINAL</text>
  <text x="150" y="305" text-anchor="middle" font-family="Georgia, serif" font-size="24" font-weight="800" fill="#ffffff">A Herdeira dos</text>
<text x="150" y="331" text-anchor="middle" font-family="Georgia, serif" font-size="24" font-weight="800" fill="#ffffff">Monstros Fofos</text>
  <text x="150" y="420" text-anchor="middle" font-family="Arial, sans-serif" font-size="10" font-weight="700" letter-spacing="1.8" fill="#ffffff" opacity="0.72">FANTASIA</text>
</svg>