<?xml version="1.0" encoding="UTF-8"?>
<svg xmlns="http://www.w3.org/2000/svg" viewBox="0 0 300 450" width="600" height="900" role="img" aria-labelledby="title desc">
  <title id="title">A Namorada do Fim do Mundo</title>
  <desc id="desc">Duas garotas de mãos dadas correndo de céu rachado e monstros, uma com espada de luz.</desc>
  <defs>
    <linearGradient id="bg" x1="0" y1="0" x2="1" y2="1">
      <stop offset="0%" stop-color="#24124d"/>
      <stop offset="58%" stop-color="#7c3aed"/>
      <stop offset="100%" stop-color="#f472b6"/>
    </linearGradient>
    <radialGradient id="glow" cx="50%" cy="35%" r="60%">
      <stop offset="0%" stop-color="#ffffff" stop-opacity="0.42"/>
      <stop offset="100%" stop-color="#ffffff" stop-opacity="0"/>
    </radialGradient>
    <linearGradient id="shade" x1="0" y1="0" x2="0" y2="1">
      <stop offset="0%" stop-color="#000000" stop-opacity="0.05"/>
      <stop offset="55%" stop-color="#000000" stop-opacity="0.1"/>
      <stop offset="100%" stop-color="#000000" stop-opacity="0.88"/>
    </linearGradient>
    <filter id="grain" x="-20%" y="-20%" width="140%" height="140%">
      <feTurbulence type="fractalNoise" baseFrequency="0.85" numOctaves="3" stitchTiles="stitch"/>
      <feColorMatrix type="saturate" values="0"/>
      <feComponentTransfer><feFuncA type="table" tableValues="0 0.12"/></feComponentTransfer>
    </filter>
  </defs>
  <rect width="300" height="450" fill="url(#bg)"/>
  <rect width="300" height="450" fill="url(#glow)"/>
  <circle cx="40" cy="40" r="2.8" fill="#fff" opacity="0.29"/>
<circle cx="123" cy="87" r="0.8" fill="#fff" opacity="0.18"/>
<circle cx="206" cy="134" r="1.8" fill="#fff" opacity="0.57"/>
<circle cx="289" cy="181" r="2.8" fill="#fff" opacity="0.46"/>
<circle cx="72" cy="228" r="0.8" fill="#fff" opacity="0.35"/>
<circle cx="155" cy="5" r="1.8" fill="#fff" opacity="0.24"/>
<circle cx="238" cy="52" r="2.8" fill="#fff" opacity="0.62"/>
<circle cx="21" cy="99" r="0.8" fill="#fff" opacity="0.51"/>
<circle cx="104" cy="146" r="1.8" fill="#fff" opacity="0.40"/>
<circle cx="187" cy="193" r="2.8" fill="#fff" opacity="0.29"/>
<circle cx="270" cy="240" r="0.8" fill="#fff" opacity="0.18"/>
<circle cx="53" cy="17" r="1.8" fill="#fff" opacity="0.57"/>
<circle cx="136" cy="64" r="2.8" fill="#fff" opacity="0.46"/>
<circle cx="219" cy="111" r="0.8" fill="#fff" opacity="0.35"/>
<circle cx="2" cy="158" r="1.8" fill="#fff" opacity="0.24"/>
<circle cx="85" cy="205" r="2.8" fill="#fff" opacity="0.62"/>
<circle cx="168" cy="252" r="0.8" fill="#fff" opacity="0.51"/>
<circle cx="251" cy="29" r="1.8" fill="#fff" opacity="0.40"/>
<circle cx="34" cy="76" r="2.8" fill="#fff" opacity="0.29"/>
<circle cx="117" cy="123" r="0.8" fill="#fff" opacity="0.18"/>
<circle cx="200" cy="170" r="1.8" fill="#fff" opacity="0.57"/>
<circle cx="283" cy="217" r="2.8" fill="#fff" opacity="0.46"/>
<circle cx="66" cy="264" r="0.8" fill="#fff" opacity="0.35"/>
<circle cx="149" cy="41" r="1.8" fill="#fff" opacity="0.24"/>
<circle cx="232" cy="88" r="2.8" fill="#fff" opacity="0.62"/>
<circle cx="15" cy="135" r="0.8" fill="#fff" opacity="0.51"/>
<circle cx="98" cy="182" r="1.8" fill="#fff" opacity="0.40"/>
<circle cx="181" cy="229" r="2.8" fill="#fff" opacity="0.29"/>
<circle cx="264" cy="6" r="0.8" fill="#fff" opacity="0.18"/>
<circle cx="47" cy="53" r="1.8" fill="#fff" opacity="0.57"/>
<circle cx="130" cy="100" r="2.8" fill="#fff" opacity="0.46"/>
<circle cx="213" cy="147" r="0.8" fill="#fff" opacity="0.35"/>
<circle cx="296" cy="194" r="1.8" fill="#fff" opacity="0.24"/>
<circle cx="79" cy="241" r="2.8" fill="#fff" opacity="0.62"/>
  <g transform="translate(0 6)" opacity="0.95">
    <path d="M35 200 C75 145 125 155 150 205 C175 155 225 145 265 200 C222 265 180 310 150 335 C120 310 78 265 35 200 Z" fill="#ffffff" opacity="0.12"/>
    <path d="M35 200 C75 145 125 155 150 205 C175 155 225 145 265 200 C222 265 180 310 150 335 C120 310 78 265 35 200 Z" fill="none" stroke="#ffffff" stroke-width="3" opacity="0.42"/>
  </g>
  <circle cx="240" cy="78" r="42" fill="#fff" opacity="0.12"/>
  <path d="M-20 356 C65 320 110 372 182 338 C230 315 260 300 330 335 L330 450 L-20 450 Z" fill="#000" opacity="0.28"/>
  <rect width="300" height="450" fill="url(#shade)"/>
  <rect width="300" height="450" filter="url(#grain)" opacity="0.45"/>
  <text x="150" y="278" text-anchor="middle" font-family="Arial, sans-serif" font-size="10" font-weight="700" letter-spacing="2.5" fill="#ffffff" opacity="0.75">TOMOVERSO ORIGINAL</text>
  <text x="150" y="305" text-anchor="middle" font-family="Georgia, serif" font-size="24" font-weight="800" fill="#ffffff">A Namorada do Fim</text>
<text x="150" y="331" text-anchor="middle" font-family="Georgia, serif" font-size="24" font-weight="800" fill="#ffffff">do Mundo</text>
  <text x="150" y="420" text-anchor="middle" font-family="Arial, sans-serif" font-size="10" font-weight="700" letter-spacing="1.8" fill="#ffffff" opacity="0.72">ROMANCE</text>
</svg>