<?xml version="1.0" encoding="UTF-8"?>
<svg xmlns="http://www.w3.org/2000/svg" viewBox="0 0 300 450" width="600" height="900" role="img" aria-labelledby="title desc">
  <title id="title">A Princesa do Apartamento 404</title>
  <desc id="desc">Princesa de armadura no sofá de apartamento bagunçado segurando controle remoto como arma.</desc>
  <defs>
    <linearGradient id="bg" x1="0" y1="0" x2="1" y2="1">
      <stop offset="0%" stop-color="#064e3b"/>
      <stop offset="58%" stop-color="#10b981"/>
      <stop offset="100%" stop-color="#fef3c7"/>
    </linearGradient>
    <radialGradient id="glow" cx="50%" cy="35%" r="60%">
      <stop offset="0%" stop-color="#ffffff" stop-opacity="0.42"/>
      <stop offset="100%" stop-color="#ffffff" stop-opacity="0"/>
    </radialGradient>
    <linearGradient id="shade" x1="0" y1="0" x2="0" y2="1">
      <stop offset="0%" stop-color="#000000" stop-opacity="0.05"/>
      <stop offset="55%" stop-color="#000000" stop-opacity="0.1"/>
      <stop offset="100%" stop-color="#000000" stop-opacity="0.88"/>
    </linearGradient>
    <filter id="grain" x="-20%" y="-20%" width="140%" height="140%">
      <feTurbulence type="fractalNoise" baseFrequency="0.85" numOctaves="3" stitchTiles="stitch"/>
      <feColorMatrix type="saturate" values="0"/>
      <feComponentTransfer><feFuncA type="table" tableValues="0 0.12"/></feComponentTransfer>
    </filter>
  </defs>
  <rect width="300" height="450" fill="url(#bg)"/>
  <rect width="300" height="450" fill="url(#glow)"/>
  <circle cx="125" cy="185" r="1.8" fill="#fff" opacity="0.57"/>
<circle cx="208" cy="232" r="2.8" fill="#fff" opacity="0.46"/>
<circle cx="291" cy="9" r="0.8" fill="#fff" opacity="0.35"/>
<circle cx="74" cy="56" r="1.8" fill="#fff" opacity="0.24"/>
<circle cx="157" cy="103" r="2.8" fill="#fff" opacity="0.62"/>
<circle cx="240" cy="150" r="0.8" fill="#fff" opacity="0.51"/>
<circle cx="23" cy="197" r="1.8" fill="#fff" opacity="0.40"/>
<circle cx="106" cy="244" r="2.8" fill="#fff" opacity="0.29"/>
<circle cx="189" cy="21" r="0.8" fill="#fff" opacity="0.18"/>
<circle cx="272" cy="68" r="1.8" fill="#fff" opacity="0.57"/>
<circle cx="55" cy="115" r="2.8" fill="#fff" opacity="0.46"/>
<circle cx="138" cy="162" r="0.8" fill="#fff" opacity="0.35"/>
<circle cx="221" cy="209" r="1.8" fill="#fff" opacity="0.24"/>
<circle cx="4" cy="256" r="2.8" fill="#fff" opacity="0.62"/>
<circle cx="87" cy="33" r="0.8" fill="#fff" opacity="0.51"/>
<circle cx="170" cy="80" r="1.8" fill="#fff" opacity="0.40"/>
<circle cx="253" cy="127" r="2.8" fill="#fff" opacity="0.29"/>
<circle cx="36" cy="174" r="0.8" fill="#fff" opacity="0.18"/>
<circle cx="119" cy="221" r="1.8" fill="#fff" opacity="0.57"/>
<circle cx="202" cy="268" r="2.8" fill="#fff" opacity="0.46"/>
<circle cx="285" cy="45" r="0.8" fill="#fff" opacity="0.35"/>
<circle cx="68" cy="92" r="1.8" fill="#fff" opacity="0.24"/>
<circle cx="151" cy="139" r="2.8" fill="#fff" opacity="0.62"/>
<circle cx="234" cy="186" r="0.8" fill="#fff" opacity="0.51"/>
<circle cx="17" cy="233" r="1.8" fill="#fff" opacity="0.40"/>
<circle cx="100" cy="10" r="2.8" fill="#fff" opacity="0.29"/>
<circle cx="183" cy="57" r="0.8" fill="#fff" opacity="0.18"/>
<circle cx="266" cy="104" r="1.8" fill="#fff" opacity="0.57"/>
<circle cx="49" cy="151" r="2.8" fill="#fff" opacity="0.46"/>
<circle cx="132" cy="198" r="0.8" fill="#fff" opacity="0.35"/>
<circle cx="215" cy="245" r="1.8" fill="#fff" opacity="0.24"/>
<circle cx="298" cy="22" r="2.8" fill="#fff" opacity="0.62"/>
<circle cx="81" cy="69" r="0.8" fill="#fff" opacity="0.51"/>
<circle cx="164" cy="116" r="1.8" fill="#fff" opacity="0.40"/>
  <g transform="translate(0 6)" opacity="0.95">
    <path d="M35 200 C75 145 125 155 150 205 C175 155 225 145 265 200 C222 265 180 310 150 335 C120 310 78 265 35 200 Z" fill="#ffffff" opacity="0.12"/>
    <path d="M35 200 C75 145 125 155 150 205 C175 155 225 145 265 200 C222 265 180 310 150 335 C120 310 78 265 35 200 Z" fill="none" stroke="#ffffff" stroke-width="3" opacity="0.42"/>
  </g>
  <circle cx="240" cy="78" r="42" fill="#fff" opacity="0.12"/>
  <path d="M-20 356 C65 320 110 372 182 338 C230 315 260 300 330 335 L330 450 L-20 450 Z" fill="#000" opacity="0.28"/>
  <rect width="300" height="450" fill="url(#shade)"/>
  <rect width="300" height="450" filter="url(#grain)" opacity="0.45"/>
  <text x="150" y="278" text-anchor="middle" font-family="Arial, sans-serif" font-size="10" font-weight="700" letter-spacing="2.5" fill="#ffffff" opacity="0.75">TOMOVERSO ORIGINAL</text>
  <text x="150" y="305" text-anchor="middle" font-family="Georgia, serif" font-size="24" font-weight="800" fill="#ffffff">A Princesa do</text>
<text x="150" y="331" text-anchor="middle" font-family="Georgia, serif" font-size="24" font-weight="800" fill="#ffffff">Apartamento 404</text>
  <text x="150" y="420" text-anchor="middle" font-family="Arial, sans-serif" font-size="10" font-weight="700" letter-spacing="1.8" fill="#ffffff" opacity="0.72">COMÉDIA FANTÁSTICA</text>
</svg>