<?xml version="1.0" encoding="UTF-8"?>
<svg xmlns="http://www.w3.org/2000/svg" viewBox="0 0 300 450" width="600" height="900" role="img" aria-labelledby="title desc">
  <title id="title">A Sociedade Secreta das Garotas do Telhado</title>
  <desc id="desc">Cinco garotas sentadas em telhado escolar ao pôr do sol com cidade ao fundo e lanternas.</desc>
  <defs>
    <linearGradient id="bg" x1="0" y1="0" x2="1" y2="1">
      <stop offset="0%" stop-color="#3b0764"/>
      <stop offset="58%" stop-color="#db2777"/>
      <stop offset="100%" stop-color="#fde68a"/>
    </linearGradient>
    <radialGradient id="glow" cx="50%" cy="35%" r="60%">
      <stop offset="0%" stop-color="#ffffff" stop-opacity="0.42"/>
      <stop offset="100%" stop-color="#ffffff" stop-opacity="0"/>
    </radialGradient>
    <linearGradient id="shade" x1="0" y1="0" x2="0" y2="1">
      <stop offset="0%" stop-color="#000000" stop-opacity="0.05"/>
      <stop offset="55%" stop-color="#000000" stop-opacity="0.1"/>
      <stop offset="100%" stop-color="#000000" stop-opacity="0.88"/>
    </linearGradient>
    <filter id="grain" x="-20%" y="-20%" width="140%" height="140%">
      <feTurbulence type="fractalNoise" baseFrequency="0.85" numOctaves="3" stitchTiles="stitch"/>
      <feColorMatrix type="saturate" values="0"/>
      <feComponentTransfer><feFuncA type="table" tableValues="0 0.12"/></feComponentTransfer>
    </filter>
  </defs>
  <rect width="300" height="450" fill="url(#bg)"/>
  <rect width="300" height="450" fill="url(#glow)"/>
  <circle cx="114" cy="138" r="0.8" fill="#fff" opacity="0.51"/>
<circle cx="197" cy="185" r="1.8" fill="#fff" opacity="0.40"/>
<circle cx="280" cy="232" r="2.8" fill="#fff" opacity="0.29"/>
<circle cx="63" cy="9" r="0.8" fill="#fff" opacity="0.18"/>
<circle cx="146" cy="56" r="1.8" fill="#fff" opacity="0.57"/>
<circle cx="229" cy="103" r="2.8" fill="#fff" opacity="0.46"/>
<circle cx="12" cy="150" r="0.8" fill="#fff" opacity="0.35"/>
<circle cx="95" cy="197" r="1.8" fill="#fff" opacity="0.24"/>
<circle cx="178" cy="244" r="2.8" fill="#fff" opacity="0.62"/>
<circle cx="261" cy="21" r="0.8" fill="#fff" opacity="0.51"/>
<circle cx="44" cy="68" r="1.8" fill="#fff" opacity="0.40"/>
<circle cx="127" cy="115" r="2.8" fill="#fff" opacity="0.29"/>
<circle cx="210" cy="162" r="0.8" fill="#fff" opacity="0.18"/>
<circle cx="293" cy="209" r="1.8" fill="#fff" opacity="0.57"/>
<circle cx="76" cy="256" r="2.8" fill="#fff" opacity="0.46"/>
<circle cx="159" cy="33" r="0.8" fill="#fff" opacity="0.35"/>
<circle cx="242" cy="80" r="1.8" fill="#fff" opacity="0.24"/>
<circle cx="25" cy="127" r="2.8" fill="#fff" opacity="0.62"/>
<circle cx="108" cy="174" r="0.8" fill="#fff" opacity="0.51"/>
<circle cx="191" cy="221" r="1.8" fill="#fff" opacity="0.40"/>
<circle cx="274" cy="268" r="2.8" fill="#fff" opacity="0.29"/>
<circle cx="57" cy="45" r="0.8" fill="#fff" opacity="0.18"/>
<circle cx="140" cy="92" r="1.8" fill="#fff" opacity="0.57"/>
<circle cx="223" cy="139" r="2.8" fill="#fff" opacity="0.46"/>
<circle cx="6" cy="186" r="0.8" fill="#fff" opacity="0.35"/>
<circle cx="89" cy="233" r="1.8" fill="#fff" opacity="0.24"/>
<circle cx="172" cy="10" r="2.8" fill="#fff" opacity="0.62"/>
<circle cx="255" cy="57" r="0.8" fill="#fff" opacity="0.51"/>
<circle cx="38" cy="104" r="1.8" fill="#fff" opacity="0.40"/>
<circle cx="121" cy="151" r="2.8" fill="#fff" opacity="0.29"/>
<circle cx="204" cy="198" r="0.8" fill="#fff" opacity="0.18"/>
<circle cx="287" cy="245" r="1.8" fill="#fff" opacity="0.57"/>
<circle cx="70" cy="22" r="2.8" fill="#fff" opacity="0.46"/>
<circle cx="153" cy="69" r="0.8" fill="#fff" opacity="0.35"/>
  <g transform="translate(0 6)" opacity="0.95">
    <path d="M80 70 C150 25 220 70 220 155 C220 250 150 330 150 330 C150 330 80 250 80 155 C80 120 95 95 115 80 Z" fill="#ffffff" opacity="0.12"/>
    <path d="M80 70 C150 25 220 70 220 155 C220 250 150 330 150 330 C150 330 80 250 80 155 C80 120 95 95 115 80 Z" fill="none" stroke="#ffffff" stroke-width="3" opacity="0.42"/>
  </g>
  <circle cx="240" cy="78" r="42" fill="#fff" opacity="0.12"/>
  <path d="M-20 356 C65 320 110 372 182 338 C230 315 260 300 330 335 L330 450 L-20 450 Z" fill="#000" opacity="0.28"/>
  <rect width="300" height="450" fill="url(#shade)"/>
  <rect width="300" height="450" filter="url(#grain)" opacity="0.45"/>
  <text x="150" y="278" text-anchor="middle" font-family="Arial, sans-serif" font-size="10" font-weight="700" letter-spacing="2.5" fill="#ffffff" opacity="0.75">TOMOVERSO ORIGINAL</text>
  <text x="150" y="305" text-anchor="middle" font-family="Georgia, serif" font-size="24" font-weight="800" fill="#ffffff">A Sociedade</text>
<text x="150" y="331" text-anchor="middle" font-family="Georgia, serif" font-size="24" font-weight="800" fill="#ffffff">Secreta das</text>
<text x="150" y="357" text-anchor="middle" font-family="Georgia, serif" font-size="24" font-weight="800" fill="#ffffff">Garotas do Telhado</text>
  <text x="150" y="420" text-anchor="middle" font-family="Arial, sans-serif" font-size="10" font-weight="700" letter-spacing="1.8" fill="#ffffff" opacity="0.72">DRAMA</text>
</svg>