<?xml version="1.0" encoding="UTF-8"?>
<svg xmlns="http://www.w3.org/2000/svg" viewBox="0 0 300 450" width="600" height="900" role="img" aria-labelledby="title desc">
  <title id="title">Antes que a Neve Esqueça</title>
  <desc id="desc">Garota segurando floco de neve com rosto de garoto refletido, cidade nevada ao fundo.</desc>
  <defs>
    <linearGradient id="bg" x1="0" y1="0" x2="1" y2="1">
      <stop offset="0%" stop-color="#064e3b"/>
      <stop offset="58%" stop-color="#10b981"/>
      <stop offset="100%" stop-color="#fef3c7"/>
    </linearGradient>
    <radialGradient id="glow" cx="50%" cy="35%" r="60%">
      <stop offset="0%" stop-color="#ffffff" stop-opacity="0.42"/>
      <stop offset="100%" stop-color="#ffffff" stop-opacity="0"/>
    </radialGradient>
    <linearGradient id="shade" x1="0" y1="0" x2="0" y2="1">
      <stop offset="0%" stop-color="#000000" stop-opacity="0.05"/>
      <stop offset="55%" stop-color="#000000" stop-opacity="0.1"/>
      <stop offset="100%" stop-color="#000000" stop-opacity="0.88"/>
    </linearGradient>
    <filter id="grain" x="-20%" y="-20%" width="140%" height="140%">
      <feTurbulence type="fractalNoise" baseFrequency="0.85" numOctaves="3" stitchTiles="stitch"/>
      <feColorMatrix type="saturate" values="0"/>
      <feComponentTransfer><feFuncA type="table" tableValues="0 0.12"/></feComponentTransfer>
    </filter>
  </defs>
  <rect width="300" height="450" fill="url(#bg)"/>
  <rect width="300" height="450" fill="url(#glow)"/>
  <circle cx="165" cy="225" r="0.8" fill="#fff" opacity="0.18"/>
<circle cx="248" cy="2" r="1.8" fill="#fff" opacity="0.57"/>
<circle cx="31" cy="49" r="2.8" fill="#fff" opacity="0.46"/>
<circle cx="114" cy="96" r="0.8" fill="#fff" opacity="0.35"/>
<circle cx="197" cy="143" r="1.8" fill="#fff" opacity="0.24"/>
<circle cx="280" cy="190" r="2.8" fill="#fff" opacity="0.62"/>
<circle cx="63" cy="237" r="0.8" fill="#fff" opacity="0.51"/>
<circle cx="146" cy="14" r="1.8" fill="#fff" opacity="0.40"/>
<circle cx="229" cy="61" r="2.8" fill="#fff" opacity="0.29"/>
<circle cx="12" cy="108" r="0.8" fill="#fff" opacity="0.18"/>
<circle cx="95" cy="155" r="1.8" fill="#fff" opacity="0.57"/>
<circle cx="178" cy="202" r="2.8" fill="#fff" opacity="0.46"/>
<circle cx="261" cy="249" r="0.8" fill="#fff" opacity="0.35"/>
<circle cx="44" cy="26" r="1.8" fill="#fff" opacity="0.24"/>
<circle cx="127" cy="73" r="2.8" fill="#fff" opacity="0.62"/>
<circle cx="210" cy="120" r="0.8" fill="#fff" opacity="0.51"/>
<circle cx="293" cy="167" r="1.8" fill="#fff" opacity="0.40"/>
<circle cx="76" cy="214" r="2.8" fill="#fff" opacity="0.29"/>
<circle cx="159" cy="261" r="0.8" fill="#fff" opacity="0.18"/>
<circle cx="242" cy="38" r="1.8" fill="#fff" opacity="0.57"/>
<circle cx="25" cy="85" r="2.8" fill="#fff" opacity="0.46"/>
<circle cx="108" cy="132" r="0.8" fill="#fff" opacity="0.35"/>
<circle cx="191" cy="179" r="1.8" fill="#fff" opacity="0.24"/>
<circle cx="274" cy="226" r="2.8" fill="#fff" opacity="0.62"/>
<circle cx="57" cy="3" r="0.8" fill="#fff" opacity="0.51"/>
<circle cx="140" cy="50" r="1.8" fill="#fff" opacity="0.40"/>
<circle cx="223" cy="97" r="2.8" fill="#fff" opacity="0.29"/>
<circle cx="6" cy="144" r="0.8" fill="#fff" opacity="0.18"/>
<circle cx="89" cy="191" r="1.8" fill="#fff" opacity="0.57"/>
<circle cx="172" cy="238" r="2.8" fill="#fff" opacity="0.46"/>
<circle cx="255" cy="15" r="0.8" fill="#fff" opacity="0.35"/>
<circle cx="38" cy="62" r="1.8" fill="#fff" opacity="0.24"/>
<circle cx="121" cy="109" r="2.8" fill="#fff" opacity="0.62"/>
<circle cx="204" cy="156" r="0.8" fill="#fff" opacity="0.51"/>
  <g transform="translate(0 6)" opacity="0.95">
    <path d="M80 70 C150 25 220 70 220 155 C220 250 150 330 150 330 C150 330 80 250 80 155 C80 120 95 95 115 80 Z" fill="#ffffff" opacity="0.12"/>
    <path d="M80 70 C150 25 220 70 220 155 C220 250 150 330 150 330 C150 330 80 250 80 155 C80 120 95 95 115 80 Z" fill="none" stroke="#ffffff" stroke-width="3" opacity="0.42"/>
  </g>
  <circle cx="240" cy="78" r="42" fill="#fff" opacity="0.12"/>
  <path d="M-20 356 C65 320 110 372 182 338 C230 315 260 300 330 335 L330 450 L-20 450 Z" fill="#000" opacity="0.28"/>
  <rect width="300" height="450" fill="url(#shade)"/>
  <rect width="300" height="450" filter="url(#grain)" opacity="0.45"/>
  <text x="150" y="278" text-anchor="middle" font-family="Arial, sans-serif" font-size="10" font-weight="700" letter-spacing="2.5" fill="#ffffff" opacity="0.75">TOMOVERSO ORIGINAL</text>
  <text x="150" y="305" text-anchor="middle" font-family="Georgia, serif" font-size="24" font-weight="800" fill="#ffffff">Antes que a Neve</text>
<text x="150" y="331" text-anchor="middle" font-family="Georgia, serif" font-size="24" font-weight="800" fill="#ffffff">Esqueça</text>
  <text x="150" y="420" text-anchor="middle" font-family="Arial, sans-serif" font-size="10" font-weight="700" letter-spacing="1.8" fill="#ffffff" opacity="0.72">DRAMA</text>
</svg>