<?xml version="1.0" encoding="UTF-8"?>
<svg xmlns="http://www.w3.org/2000/svg" viewBox="0 0 300 450" width="600" height="900" role="img" aria-labelledby="title desc">
  <title id="title">Café às 23h59</title>
  <desc id="desc">Barista em cafeteria neon de madrugada, relógio marcando 23:59 e cliente misterioso na porta.</desc>
  <defs>
    <linearGradient id="bg" x1="0" y1="0" x2="1" y2="1">
      <stop offset="0%" stop-color="#0f172a"/>
      <stop offset="58%" stop-color="#2563eb"/>
      <stop offset="100%" stop-color="#c4b5fd"/>
    </linearGradient>
    <radialGradient id="glow" cx="50%" cy="35%" r="60%">
      <stop offset="0%" stop-color="#ffffff" stop-opacity="0.42"/>
      <stop offset="100%" stop-color="#ffffff" stop-opacity="0"/>
    </radialGradient>
    <linearGradient id="shade" x1="0" y1="0" x2="0" y2="1">
      <stop offset="0%" stop-color="#000000" stop-opacity="0.05"/>
      <stop offset="55%" stop-color="#000000" stop-opacity="0.1"/>
      <stop offset="100%" stop-color="#000000" stop-opacity="0.88"/>
    </linearGradient>
    <filter id="grain" x="-20%" y="-20%" width="140%" height="140%">
      <feTurbulence type="fractalNoise" baseFrequency="0.85" numOctaves="3" stitchTiles="stitch"/>
      <feColorMatrix type="saturate" values="0"/>
      <feComponentTransfer><feFuncA type="table" tableValues="0 0.12"/></feComponentTransfer>
    </filter>
  </defs>
  <rect width="300" height="450" fill="url(#bg)"/>
  <rect width="300" height="450" fill="url(#glow)"/>
  <circle cx="238" cy="136" r="2.8" fill="#fff" opacity="0.46"/>
<circle cx="21" cy="183" r="0.8" fill="#fff" opacity="0.35"/>
<circle cx="104" cy="230" r="1.8" fill="#fff" opacity="0.24"/>
<circle cx="187" cy="7" r="2.8" fill="#fff" opacity="0.62"/>
<circle cx="270" cy="54" r="0.8" fill="#fff" opacity="0.51"/>
<circle cx="53" cy="101" r="1.8" fill="#fff" opacity="0.40"/>
<circle cx="136" cy="148" r="2.8" fill="#fff" opacity="0.29"/>
<circle cx="219" cy="195" r="0.8" fill="#fff" opacity="0.18"/>
<circle cx="2" cy="242" r="1.8" fill="#fff" opacity="0.57"/>
<circle cx="85" cy="19" r="2.8" fill="#fff" opacity="0.46"/>
<circle cx="168" cy="66" r="0.8" fill="#fff" opacity="0.35"/>
<circle cx="251" cy="113" r="1.8" fill="#fff" opacity="0.24"/>
<circle cx="34" cy="160" r="2.8" fill="#fff" opacity="0.62"/>
<circle cx="117" cy="207" r="0.8" fill="#fff" opacity="0.51"/>
<circle cx="200" cy="254" r="1.8" fill="#fff" opacity="0.40"/>
<circle cx="283" cy="31" r="2.8" fill="#fff" opacity="0.29"/>
<circle cx="66" cy="78" r="0.8" fill="#fff" opacity="0.18"/>
<circle cx="149" cy="125" r="1.8" fill="#fff" opacity="0.57"/>
<circle cx="232" cy="172" r="2.8" fill="#fff" opacity="0.46"/>
<circle cx="15" cy="219" r="0.8" fill="#fff" opacity="0.35"/>
<circle cx="98" cy="266" r="1.8" fill="#fff" opacity="0.24"/>
<circle cx="181" cy="43" r="2.8" fill="#fff" opacity="0.62"/>
<circle cx="264" cy="90" r="0.8" fill="#fff" opacity="0.51"/>
<circle cx="47" cy="137" r="1.8" fill="#fff" opacity="0.40"/>
<circle cx="130" cy="184" r="2.8" fill="#fff" opacity="0.29"/>
<circle cx="213" cy="231" r="0.8" fill="#fff" opacity="0.18"/>
<circle cx="296" cy="8" r="1.8" fill="#fff" opacity="0.57"/>
<circle cx="79" cy="55" r="2.8" fill="#fff" opacity="0.46"/>
<circle cx="162" cy="102" r="0.8" fill="#fff" opacity="0.35"/>
<circle cx="245" cy="149" r="1.8" fill="#fff" opacity="0.24"/>
<circle cx="28" cy="196" r="2.8" fill="#fff" opacity="0.62"/>
<circle cx="111" cy="243" r="0.8" fill="#fff" opacity="0.51"/>
<circle cx="194" cy="20" r="1.8" fill="#fff" opacity="0.40"/>
<circle cx="277" cy="67" r="2.8" fill="#fff" opacity="0.29"/>
  <g transform="translate(0 6)" opacity="0.95">
    <path d="M35 200 C75 145 125 155 150 205 C175 155 225 145 265 200 C222 265 180 310 150 335 C120 310 78 265 35 200 Z" fill="#ffffff" opacity="0.12"/>
    <path d="M35 200 C75 145 125 155 150 205 C175 155 225 145 265 200 C222 265 180 310 150 335 C120 310 78 265 35 200 Z" fill="none" stroke="#ffffff" stroke-width="3" opacity="0.42"/>
  </g>
  <circle cx="240" cy="78" r="42" fill="#fff" opacity="0.12"/>
  <path d="M-20 356 C65 320 110 372 182 338 C230 315 260 300 330 335 L330 450 L-20 450 Z" fill="#000" opacity="0.28"/>
  <rect width="300" height="450" fill="url(#shade)"/>
  <rect width="300" height="450" filter="url(#grain)" opacity="0.45"/>
  <text x="150" y="278" text-anchor="middle" font-family="Arial, sans-serif" font-size="10" font-weight="700" letter-spacing="2.5" fill="#ffffff" opacity="0.75">TOMOVERSO ORIGINAL</text>
  <text x="150" y="305" text-anchor="middle" font-family="Georgia, serif" font-size="24" font-weight="800" fill="#ffffff">Café às 23h59</text>
  <text x="150" y="420" text-anchor="middle" font-family="Arial, sans-serif" font-size="10" font-weight="700" letter-spacing="1.8" fill="#ffffff" opacity="0.72">SLICE OF LIFE</text>
</svg>