<?xml version="1.0" encoding="UTF-8"?>
<svg xmlns="http://www.w3.org/2000/svg" viewBox="0 0 300 450" width="600" height="900" role="img" aria-labelledby="title desc">
  <title id="title">Cidade dos Sonhos Alugados</title>
  <desc id="desc">Cidade cyberpunk com anúncios de sonhos, entregador em moto e nuvens coloridas presas em cápsulas.</desc>
  <defs>
    <linearGradient id="bg" x1="0" y1="0" x2="1" y2="1">
      <stop offset="0%" stop-color="#312e81"/>
      <stop offset="58%" stop-color="#a855f7"/>
      <stop offset="100%" stop-color="#22d3ee"/>
    </linearGradient>
    <radialGradient id="glow" cx="50%" cy="35%" r="60%">
      <stop offset="0%" stop-color="#ffffff" stop-opacity="0.42"/>
      <stop offset="100%" stop-color="#ffffff" stop-opacity="0"/>
    </radialGradient>
    <linearGradient id="shade" x1="0" y1="0" x2="0" y2="1">
      <stop offset="0%" stop-color="#000000" stop-opacity="0.05"/>
      <stop offset="55%" stop-color="#000000" stop-opacity="0.1"/>
      <stop offset="100%" stop-color="#000000" stop-opacity="0.88"/>
    </linearGradient>
    <filter id="grain" x="-20%" y="-20%" width="140%" height="140%">
      <feTurbulence type="fractalNoise" baseFrequency="0.85" numOctaves="3" stitchTiles="stitch"/>
      <feColorMatrix type="saturate" values="0"/>
      <feComponentTransfer><feFuncA type="table" tableValues="0 0.12"/></feComponentTransfer>
    </filter>
  </defs>
  <rect width="300" height="450" fill="url(#bg)"/>
  <rect width="300" height="450" fill="url(#glow)"/>
  <circle cx="176" cy="2" r="1.8" fill="#fff" opacity="0.24"/>
<circle cx="259" cy="49" r="2.8" fill="#fff" opacity="0.62"/>
<circle cx="42" cy="96" r="0.8" fill="#fff" opacity="0.51"/>
<circle cx="125" cy="143" r="1.8" fill="#fff" opacity="0.40"/>
<circle cx="208" cy="190" r="2.8" fill="#fff" opacity="0.29"/>
<circle cx="291" cy="237" r="0.8" fill="#fff" opacity="0.18"/>
<circle cx="74" cy="14" r="1.8" fill="#fff" opacity="0.57"/>
<circle cx="157" cy="61" r="2.8" fill="#fff" opacity="0.46"/>
<circle cx="240" cy="108" r="0.8" fill="#fff" opacity="0.35"/>
<circle cx="23" cy="155" r="1.8" fill="#fff" opacity="0.24"/>
<circle cx="106" cy="202" r="2.8" fill="#fff" opacity="0.62"/>
<circle cx="189" cy="249" r="0.8" fill="#fff" opacity="0.51"/>
<circle cx="272" cy="26" r="1.8" fill="#fff" opacity="0.40"/>
<circle cx="55" cy="73" r="2.8" fill="#fff" opacity="0.29"/>
<circle cx="138" cy="120" r="0.8" fill="#fff" opacity="0.18"/>
<circle cx="221" cy="167" r="1.8" fill="#fff" opacity="0.57"/>
<circle cx="4" cy="214" r="2.8" fill="#fff" opacity="0.46"/>
<circle cx="87" cy="261" r="0.8" fill="#fff" opacity="0.35"/>
<circle cx="170" cy="38" r="1.8" fill="#fff" opacity="0.24"/>
<circle cx="253" cy="85" r="2.8" fill="#fff" opacity="0.62"/>
<circle cx="36" cy="132" r="0.8" fill="#fff" opacity="0.51"/>
<circle cx="119" cy="179" r="1.8" fill="#fff" opacity="0.40"/>
<circle cx="202" cy="226" r="2.8" fill="#fff" opacity="0.29"/>
<circle cx="285" cy="3" r="0.8" fill="#fff" opacity="0.18"/>
<circle cx="68" cy="50" r="1.8" fill="#fff" opacity="0.57"/>
<circle cx="151" cy="97" r="2.8" fill="#fff" opacity="0.46"/>
<circle cx="234" cy="144" r="0.8" fill="#fff" opacity="0.35"/>
<circle cx="17" cy="191" r="1.8" fill="#fff" opacity="0.24"/>
<circle cx="100" cy="238" r="2.8" fill="#fff" opacity="0.62"/>
<circle cx="183" cy="15" r="0.8" fill="#fff" opacity="0.51"/>
<circle cx="266" cy="62" r="1.8" fill="#fff" opacity="0.40"/>
<circle cx="49" cy="109" r="2.8" fill="#fff" opacity="0.29"/>
<circle cx="132" cy="156" r="0.8" fill="#fff" opacity="0.18"/>
<circle cx="215" cy="203" r="1.8" fill="#fff" opacity="0.57"/>
  <g transform="translate(0 6)" opacity="0.95">
    <path d="M150 55 C215 55 265 105 265 170 C265 245 210 305 150 335 C90 305 35 245 35 170 C35 105 85 55 150 55 Z" fill="#ffffff" opacity="0.12"/>
    <path d="M150 55 C215 55 265 105 265 170 C265 245 210 305 150 335 C90 305 35 245 35 170 C35 105 85 55 150 55 Z" fill="none" stroke="#ffffff" stroke-width="3" opacity="0.42"/>
  </g>
  <circle cx="240" cy="78" r="42" fill="#fff" opacity="0.12"/>
  <path d="M-20 356 C65 320 110 372 182 338 C230 315 260 300 330 335 L330 450 L-20 450 Z" fill="#000" opacity="0.28"/>
  <rect width="300" height="450" fill="url(#shade)"/>
  <rect width="300" height="450" filter="url(#grain)" opacity="0.45"/>
  <text x="150" y="278" text-anchor="middle" font-family="Arial, sans-serif" font-size="10" font-weight="700" letter-spacing="2.5" fill="#ffffff" opacity="0.75">TOMOVERSO ORIGINAL</text>
  <text x="150" y="305" text-anchor="middle" font-family="Georgia, serif" font-size="24" font-weight="800" fill="#ffffff">Cidade dos Sonhos</text>
<text x="150" y="331" text-anchor="middle" font-family="Georgia, serif" font-size="24" font-weight="800" fill="#ffffff">Alugados</text>
  <text x="150" y="420" text-anchor="middle" font-family="Arial, sans-serif" font-size="10" font-weight="700" letter-spacing="1.8" fill="#ffffff" opacity="0.72">FICÇÃO CIENTÍFICA</text>
</svg>