<?xml version="1.0" encoding="UTF-8"?>
<svg xmlns="http://www.w3.org/2000/svg" viewBox="0 0 300 450" width="600" height="900" role="img" aria-labelledby="title desc">
  <title id="title">Clube dos Corações em Guerra</title>
  <desc id="desc">Dois líderes de clube brigando com quadros de estratégia amorosa, corações e bilhetes voando.</desc>
  <defs>
    <linearGradient id="bg" x1="0" y1="0" x2="1" y2="1">
      <stop offset="0%" stop-color="#172554"/>
      <stop offset="58%" stop-color="#60a5fa"/>
      <stop offset="100%" stop-color="#f9a8d4"/>
    </linearGradient>
    <radialGradient id="glow" cx="50%" cy="35%" r="60%">
      <stop offset="0%" stop-color="#ffffff" stop-opacity="0.42"/>
      <stop offset="100%" stop-color="#ffffff" stop-opacity="0"/>
    </radialGradient>
    <linearGradient id="shade" x1="0" y1="0" x2="0" y2="1">
      <stop offset="0%" stop-color="#000000" stop-opacity="0.05"/>
      <stop offset="55%" stop-color="#000000" stop-opacity="0.1"/>
      <stop offset="100%" stop-color="#000000" stop-opacity="0.88"/>
    </linearGradient>
    <filter id="grain" x="-20%" y="-20%" width="140%" height="140%">
      <feTurbulence type="fractalNoise" baseFrequency="0.85" numOctaves="3" stitchTiles="stitch"/>
      <feColorMatrix type="saturate" values="0"/>
      <feComponentTransfer><feFuncA type="table" tableValues="0 0.12"/></feComponentTransfer>
    </filter>
  </defs>
  <rect width="300" height="450" fill="url(#bg)"/>
  <rect width="300" height="450" fill="url(#glow)"/>
  <circle cx="119" cy="203" r="1.8" fill="#fff" opacity="0.57"/>
<circle cx="202" cy="250" r="2.8" fill="#fff" opacity="0.46"/>
<circle cx="285" cy="27" r="0.8" fill="#fff" opacity="0.35"/>
<circle cx="68" cy="74" r="1.8" fill="#fff" opacity="0.24"/>
<circle cx="151" cy="121" r="2.8" fill="#fff" opacity="0.62"/>
<circle cx="234" cy="168" r="0.8" fill="#fff" opacity="0.51"/>
<circle cx="17" cy="215" r="1.8" fill="#fff" opacity="0.40"/>
<circle cx="100" cy="262" r="2.8" fill="#fff" opacity="0.29"/>
<circle cx="183" cy="39" r="0.8" fill="#fff" opacity="0.18"/>
<circle cx="266" cy="86" r="1.8" fill="#fff" opacity="0.57"/>
<circle cx="49" cy="133" r="2.8" fill="#fff" opacity="0.46"/>
<circle cx="132" cy="180" r="0.8" fill="#fff" opacity="0.35"/>
<circle cx="215" cy="227" r="1.8" fill="#fff" opacity="0.24"/>
<circle cx="298" cy="4" r="2.8" fill="#fff" opacity="0.62"/>
<circle cx="81" cy="51" r="0.8" fill="#fff" opacity="0.51"/>
<circle cx="164" cy="98" r="1.8" fill="#fff" opacity="0.40"/>
<circle cx="247" cy="145" r="2.8" fill="#fff" opacity="0.29"/>
<circle cx="30" cy="192" r="0.8" fill="#fff" opacity="0.18"/>
<circle cx="113" cy="239" r="1.8" fill="#fff" opacity="0.57"/>
<circle cx="196" cy="16" r="2.8" fill="#fff" opacity="0.46"/>
<circle cx="279" cy="63" r="0.8" fill="#fff" opacity="0.35"/>
<circle cx="62" cy="110" r="1.8" fill="#fff" opacity="0.24"/>
<circle cx="145" cy="157" r="2.8" fill="#fff" opacity="0.62"/>
<circle cx="228" cy="204" r="0.8" fill="#fff" opacity="0.51"/>
<circle cx="11" cy="251" r="1.8" fill="#fff" opacity="0.40"/>
<circle cx="94" cy="28" r="2.8" fill="#fff" opacity="0.29"/>
<circle cx="177" cy="75" r="0.8" fill="#fff" opacity="0.18"/>
<circle cx="260" cy="122" r="1.8" fill="#fff" opacity="0.57"/>
<circle cx="43" cy="169" r="2.8" fill="#fff" opacity="0.46"/>
<circle cx="126" cy="216" r="0.8" fill="#fff" opacity="0.35"/>
<circle cx="209" cy="263" r="1.8" fill="#fff" opacity="0.24"/>
<circle cx="292" cy="40" r="2.8" fill="#fff" opacity="0.62"/>
<circle cx="75" cy="87" r="0.8" fill="#fff" opacity="0.51"/>
<circle cx="158" cy="134" r="1.8" fill="#fff" opacity="0.40"/>
  <g transform="translate(0 6)" opacity="0.95">
    <path d="M50 180 Q150 70 250 180 Q150 330 50 180 Z" fill="#ffffff" opacity="0.12"/>
    <path d="M50 180 Q150 70 250 180 Q150 330 50 180 Z" fill="none" stroke="#ffffff" stroke-width="3" opacity="0.42"/>
  </g>
  <circle cx="240" cy="78" r="42" fill="#fff" opacity="0.12"/>
  <path d="M-20 356 C65 320 110 372 182 338 C230 315 260 300 330 335 L330 450 L-20 450 Z" fill="#000" opacity="0.28"/>
  <rect width="300" height="450" fill="url(#shade)"/>
  <rect width="300" height="450" filter="url(#grain)" opacity="0.45"/>
  <text x="150" y="278" text-anchor="middle" font-family="Arial, sans-serif" font-size="10" font-weight="700" letter-spacing="2.5" fill="#ffffff" opacity="0.75">TOMOVERSO ORIGINAL</text>
  <text x="150" y="305" text-anchor="middle" font-family="Georgia, serif" font-size="24" font-weight="800" fill="#ffffff">Clube dos Corações</text>
<text x="150" y="331" text-anchor="middle" font-family="Georgia, serif" font-size="24" font-weight="800" fill="#ffffff">em Guerra</text>
  <text x="150" y="420" text-anchor="middle" font-family="Arial, sans-serif" font-size="10" font-weight="700" letter-spacing="1.8" fill="#ffffff" opacity="0.72">COMÉDIA ROMÂNTICA</text>
</svg>