<?xml version="1.0" encoding="UTF-8"?>
<svg xmlns="http://www.w3.org/2000/svg" viewBox="0 0 300 450" width="600" height="900" role="img" aria-labelledby="title desc">
  <title id="title">Coroa de Vidro Neon</title>
  <desc id="desc">Garota com coroa transparente de neon em passarela futurista cercada por drones câmeras.</desc>
  <defs>
    <linearGradient id="bg" x1="0" y1="0" x2="1" y2="1">
      <stop offset="0%" stop-color="#082f49"/>
      <stop offset="58%" stop-color="#0891b2"/>
      <stop offset="100%" stop-color="#facc15"/>
    </linearGradient>
    <radialGradient id="glow" cx="50%" cy="35%" r="60%">
      <stop offset="0%" stop-color="#ffffff" stop-opacity="0.42"/>
      <stop offset="100%" stop-color="#ffffff" stop-opacity="0"/>
    </radialGradient>
    <linearGradient id="shade" x1="0" y1="0" x2="0" y2="1">
      <stop offset="0%" stop-color="#000000" stop-opacity="0.05"/>
      <stop offset="55%" stop-color="#000000" stop-opacity="0.1"/>
      <stop offset="100%" stop-color="#000000" stop-opacity="0.88"/>
    </linearGradient>
    <filter id="grain" x="-20%" y="-20%" width="140%" height="140%">
      <feTurbulence type="fractalNoise" baseFrequency="0.85" numOctaves="3" stitchTiles="stitch"/>
      <feColorMatrix type="saturate" values="0"/>
      <feComponentTransfer><feFuncA type="table" tableValues="0 0.12"/></feComponentTransfer>
    </filter>
  </defs>
  <rect width="300" height="450" fill="url(#bg)"/>
  <rect width="300" height="450" fill="url(#glow)"/>
  <circle cx="57" cy="69" r="0.8" fill="#fff" opacity="0.35"/>
<circle cx="140" cy="116" r="1.8" fill="#fff" opacity="0.24"/>
<circle cx="223" cy="163" r="2.8" fill="#fff" opacity="0.62"/>
<circle cx="6" cy="210" r="0.8" fill="#fff" opacity="0.51"/>
<circle cx="89" cy="257" r="1.8" fill="#fff" opacity="0.40"/>
<circle cx="172" cy="34" r="2.8" fill="#fff" opacity="0.29"/>
<circle cx="255" cy="81" r="0.8" fill="#fff" opacity="0.18"/>
<circle cx="38" cy="128" r="1.8" fill="#fff" opacity="0.57"/>
<circle cx="121" cy="175" r="2.8" fill="#fff" opacity="0.46"/>
<circle cx="204" cy="222" r="0.8" fill="#fff" opacity="0.35"/>
<circle cx="287" cy="269" r="1.8" fill="#fff" opacity="0.24"/>
<circle cx="70" cy="46" r="2.8" fill="#fff" opacity="0.62"/>
<circle cx="153" cy="93" r="0.8" fill="#fff" opacity="0.51"/>
<circle cx="236" cy="140" r="1.8" fill="#fff" opacity="0.40"/>
<circle cx="19" cy="187" r="2.8" fill="#fff" opacity="0.29"/>
<circle cx="102" cy="234" r="0.8" fill="#fff" opacity="0.18"/>
<circle cx="185" cy="11" r="1.8" fill="#fff" opacity="0.57"/>
<circle cx="268" cy="58" r="2.8" fill="#fff" opacity="0.46"/>
<circle cx="51" cy="105" r="0.8" fill="#fff" opacity="0.35"/>
<circle cx="134" cy="152" r="1.8" fill="#fff" opacity="0.24"/>
<circle cx="217" cy="199" r="2.8" fill="#fff" opacity="0.62"/>
<circle cx="0" cy="246" r="0.8" fill="#fff" opacity="0.51"/>
<circle cx="83" cy="23" r="1.8" fill="#fff" opacity="0.40"/>
<circle cx="166" cy="70" r="2.8" fill="#fff" opacity="0.29"/>
<circle cx="249" cy="117" r="0.8" fill="#fff" opacity="0.18"/>
<circle cx="32" cy="164" r="1.8" fill="#fff" opacity="0.57"/>
<circle cx="115" cy="211" r="2.8" fill="#fff" opacity="0.46"/>
<circle cx="198" cy="258" r="0.8" fill="#fff" opacity="0.35"/>
<circle cx="281" cy="35" r="1.8" fill="#fff" opacity="0.24"/>
<circle cx="64" cy="82" r="2.8" fill="#fff" opacity="0.62"/>
<circle cx="147" cy="129" r="0.8" fill="#fff" opacity="0.51"/>
<circle cx="230" cy="176" r="1.8" fill="#fff" opacity="0.40"/>
<circle cx="13" cy="223" r="2.8" fill="#fff" opacity="0.29"/>
<circle cx="96" cy="0" r="0.8" fill="#fff" opacity="0.18"/>
  <g transform="translate(0 6)" opacity="0.95">
    <path d="M150 55 C215 55 265 105 265 170 C265 245 210 305 150 335 C90 305 35 245 35 170 C35 105 85 55 150 55 Z" fill="#ffffff" opacity="0.12"/>
    <path d="M150 55 C215 55 265 105 265 170 C265 245 210 305 150 335 C90 305 35 245 35 170 C35 105 85 55 150 55 Z" fill="none" stroke="#ffffff" stroke-width="3" opacity="0.42"/>
  </g>
  <circle cx="240" cy="78" r="42" fill="#fff" opacity="0.12"/>
  <path d="M-20 356 C65 320 110 372 182 338 C230 315 260 300 330 335 L330 450 L-20 450 Z" fill="#000" opacity="0.28"/>
  <rect width="300" height="450" fill="url(#shade)"/>
  <rect width="300" height="450" filter="url(#grain)" opacity="0.45"/>
  <text x="150" y="278" text-anchor="middle" font-family="Arial, sans-serif" font-size="10" font-weight="700" letter-spacing="2.5" fill="#ffffff" opacity="0.75">TOMOVERSO ORIGINAL</text>
  <text x="150" y="305" text-anchor="middle" font-family="Georgia, serif" font-size="24" font-weight="800" fill="#ffffff">Coroa de Vidro</text>
<text x="150" y="331" text-anchor="middle" font-family="Georgia, serif" font-size="24" font-weight="800" fill="#ffffff">Neon</text>
  <text x="150" y="420" text-anchor="middle" font-family="Arial, sans-serif" font-size="10" font-weight="700" letter-spacing="1.8" fill="#ffffff" opacity="0.72">FICÇÃO CIENTÍFICA</text>
</svg>