<?xml version="1.0" encoding="UTF-8"?>
<svg xmlns="http://www.w3.org/2000/svg" viewBox="0 0 300 450" width="600" height="900" role="img" aria-labelledby="title desc">
  <title id="title">Dois Príncipes e Nenhuma Coroa</title>
  <desc id="desc">Dois príncipes rivais correndo por ponte em chamas, coroas caindo atrás deles.</desc>
  <defs>
    <linearGradient id="bg" x1="0" y1="0" x2="1" y2="1">
      <stop offset="0%" stop-color="#111827"/>
      <stop offset="58%" stop-color="#ef4444"/>
      <stop offset="100%" stop-color="#f59e0b"/>
    </linearGradient>
    <radialGradient id="glow" cx="50%" cy="35%" r="60%">
      <stop offset="0%" stop-color="#ffffff" stop-opacity="0.42"/>
      <stop offset="100%" stop-color="#ffffff" stop-opacity="0"/>
    </radialGradient>
    <linearGradient id="shade" x1="0" y1="0" x2="0" y2="1">
      <stop offset="0%" stop-color="#000000" stop-opacity="0.05"/>
      <stop offset="55%" stop-color="#000000" stop-opacity="0.1"/>
      <stop offset="100%" stop-color="#000000" stop-opacity="0.88"/>
    </linearGradient>
    <filter id="grain" x="-20%" y="-20%" width="140%" height="140%">
      <feTurbulence type="fractalNoise" baseFrequency="0.85" numOctaves="3" stitchTiles="stitch"/>
      <feColorMatrix type="saturate" values="0"/>
      <feComponentTransfer><feFuncA type="table" tableValues="0 0.12"/></feComponentTransfer>
    </filter>
  </defs>
  <rect width="300" height="450" fill="url(#bg)"/>
  <rect width="300" height="450" fill="url(#glow)"/>
  <circle cx="91" cy="127" r="2.8" fill="#fff" opacity="0.46"/>
<circle cx="174" cy="174" r="0.8" fill="#fff" opacity="0.35"/>
<circle cx="257" cy="221" r="1.8" fill="#fff" opacity="0.24"/>
<circle cx="40" cy="268" r="2.8" fill="#fff" opacity="0.62"/>
<circle cx="123" cy="45" r="0.8" fill="#fff" opacity="0.51"/>
<circle cx="206" cy="92" r="1.8" fill="#fff" opacity="0.40"/>
<circle cx="289" cy="139" r="2.8" fill="#fff" opacity="0.29"/>
<circle cx="72" cy="186" r="0.8" fill="#fff" opacity="0.18"/>
<circle cx="155" cy="233" r="1.8" fill="#fff" opacity="0.57"/>
<circle cx="238" cy="10" r="2.8" fill="#fff" opacity="0.46"/>
<circle cx="21" cy="57" r="0.8" fill="#fff" opacity="0.35"/>
<circle cx="104" cy="104" r="1.8" fill="#fff" opacity="0.24"/>
<circle cx="187" cy="151" r="2.8" fill="#fff" opacity="0.62"/>
<circle cx="270" cy="198" r="0.8" fill="#fff" opacity="0.51"/>
<circle cx="53" cy="245" r="1.8" fill="#fff" opacity="0.40"/>
<circle cx="136" cy="22" r="2.8" fill="#fff" opacity="0.29"/>
<circle cx="219" cy="69" r="0.8" fill="#fff" opacity="0.18"/>
<circle cx="2" cy="116" r="1.8" fill="#fff" opacity="0.57"/>
<circle cx="85" cy="163" r="2.8" fill="#fff" opacity="0.46"/>
<circle cx="168" cy="210" r="0.8" fill="#fff" opacity="0.35"/>
<circle cx="251" cy="257" r="1.8" fill="#fff" opacity="0.24"/>
<circle cx="34" cy="34" r="2.8" fill="#fff" opacity="0.62"/>
<circle cx="117" cy="81" r="0.8" fill="#fff" opacity="0.51"/>
<circle cx="200" cy="128" r="1.8" fill="#fff" opacity="0.40"/>
<circle cx="283" cy="175" r="2.8" fill="#fff" opacity="0.29"/>
<circle cx="66" cy="222" r="0.8" fill="#fff" opacity="0.18"/>
<circle cx="149" cy="269" r="1.8" fill="#fff" opacity="0.57"/>
<circle cx="232" cy="46" r="2.8" fill="#fff" opacity="0.46"/>
<circle cx="15" cy="93" r="0.8" fill="#fff" opacity="0.35"/>
<circle cx="98" cy="140" r="1.8" fill="#fff" opacity="0.24"/>
<circle cx="181" cy="187" r="2.8" fill="#fff" opacity="0.62"/>
<circle cx="264" cy="234" r="0.8" fill="#fff" opacity="0.51"/>
<circle cx="47" cy="11" r="1.8" fill="#fff" opacity="0.40"/>
<circle cx="130" cy="58" r="2.8" fill="#fff" opacity="0.29"/>
  <g transform="translate(0 6)" opacity="0.95">
    <path d="M40 205 C78 150 130 150 150 210 C170 150 222 150 260 205 C220 260 185 300 150 330 C115 300 80 260 40 205 Z" fill="#ffffff" opacity="0.12"/>
    <path d="M40 205 C78 150 130 150 150 210 C170 150 222 150 260 205 C220 260 185 300 150 330 C115 300 80 260 40 205 Z" fill="none" stroke="#ffffff" stroke-width="3" opacity="0.42"/>
  </g>
  <circle cx="240" cy="78" r="42" fill="#fff" opacity="0.12"/>
  <path d="M-20 356 C65 320 110 372 182 338 C230 315 260 300 330 335 L330 450 L-20 450 Z" fill="#000" opacity="0.28"/>
  <rect width="300" height="450" fill="url(#shade)"/>
  <rect width="300" height="450" filter="url(#grain)" opacity="0.45"/>
  <text x="150" y="278" text-anchor="middle" font-family="Arial, sans-serif" font-size="10" font-weight="700" letter-spacing="2.5" fill="#ffffff" opacity="0.75">TOMOVERSO ORIGINAL</text>
  <text x="150" y="305" text-anchor="middle" font-family="Georgia, serif" font-size="24" font-weight="800" fill="#ffffff">Dois Príncipes e</text>
<text x="150" y="331" text-anchor="middle" font-family="Georgia, serif" font-size="24" font-weight="800" fill="#ffffff">Nenhuma Coroa</text>
  <text x="150" y="420" text-anchor="middle" font-family="Arial, sans-serif" font-size="10" font-weight="700" letter-spacing="1.8" fill="#ffffff" opacity="0.72">ROMANCE BL</text>
</svg>