<?xml version="1.0" encoding="UTF-8"?>
<svg xmlns="http://www.w3.org/2000/svg" viewBox="0 0 300 450" width="600" height="900" role="img" aria-labelledby="title desc">
  <title id="title">Garotos que Brilham no Escuro</title>
  <desc id="desc">Dois garotos em corredor escuro da escola com mãos brilhando e olhares tensos.</desc>
  <defs>
    <linearGradient id="bg" x1="0" y1="0" x2="1" y2="1">
      <stop offset="0%" stop-color="#3b0764"/>
      <stop offset="58%" stop-color="#db2777"/>
      <stop offset="100%" stop-color="#fde68a"/>
    </linearGradient>
    <radialGradient id="glow" cx="50%" cy="35%" r="60%">
      <stop offset="0%" stop-color="#ffffff" stop-opacity="0.42"/>
      <stop offset="100%" stop-color="#ffffff" stop-opacity="0"/>
    </radialGradient>
    <linearGradient id="shade" x1="0" y1="0" x2="0" y2="1">
      <stop offset="0%" stop-color="#000000" stop-opacity="0.05"/>
      <stop offset="55%" stop-color="#000000" stop-opacity="0.1"/>
      <stop offset="100%" stop-color="#000000" stop-opacity="0.88"/>
    </linearGradient>
    <filter id="grain" x="-20%" y="-20%" width="140%" height="140%">
      <feTurbulence type="fractalNoise" baseFrequency="0.85" numOctaves="3" stitchTiles="stitch"/>
      <feColorMatrix type="saturate" values="0"/>
      <feComponentTransfer><feFuncA type="table" tableValues="0 0.12"/></feComponentTransfer>
    </filter>
  </defs>
  <rect width="300" height="450" fill="url(#bg)"/>
  <rect width="300" height="450" fill="url(#glow)"/>
  <circle cx="204" cy="78" r="0.8" fill="#fff" opacity="0.35"/>
<circle cx="287" cy="125" r="1.8" fill="#fff" opacity="0.24"/>
<circle cx="70" cy="172" r="2.8" fill="#fff" opacity="0.62"/>
<circle cx="153" cy="219" r="0.8" fill="#fff" opacity="0.51"/>
<circle cx="236" cy="266" r="1.8" fill="#fff" opacity="0.40"/>
<circle cx="19" cy="43" r="2.8" fill="#fff" opacity="0.29"/>
<circle cx="102" cy="90" r="0.8" fill="#fff" opacity="0.18"/>
<circle cx="185" cy="137" r="1.8" fill="#fff" opacity="0.57"/>
<circle cx="268" cy="184" r="2.8" fill="#fff" opacity="0.46"/>
<circle cx="51" cy="231" r="0.8" fill="#fff" opacity="0.35"/>
<circle cx="134" cy="8" r="1.8" fill="#fff" opacity="0.24"/>
<circle cx="217" cy="55" r="2.8" fill="#fff" opacity="0.62"/>
<circle cx="0" cy="102" r="0.8" fill="#fff" opacity="0.51"/>
<circle cx="83" cy="149" r="1.8" fill="#fff" opacity="0.40"/>
<circle cx="166" cy="196" r="2.8" fill="#fff" opacity="0.29"/>
<circle cx="249" cy="243" r="0.8" fill="#fff" opacity="0.18"/>
<circle cx="32" cy="20" r="1.8" fill="#fff" opacity="0.57"/>
<circle cx="115" cy="67" r="2.8" fill="#fff" opacity="0.46"/>
<circle cx="198" cy="114" r="0.8" fill="#fff" opacity="0.35"/>
<circle cx="281" cy="161" r="1.8" fill="#fff" opacity="0.24"/>
<circle cx="64" cy="208" r="2.8" fill="#fff" opacity="0.62"/>
<circle cx="147" cy="255" r="0.8" fill="#fff" opacity="0.51"/>
<circle cx="230" cy="32" r="1.8" fill="#fff" opacity="0.40"/>
<circle cx="13" cy="79" r="2.8" fill="#fff" opacity="0.29"/>
<circle cx="96" cy="126" r="0.8" fill="#fff" opacity="0.18"/>
<circle cx="179" cy="173" r="1.8" fill="#fff" opacity="0.57"/>
<circle cx="262" cy="220" r="2.8" fill="#fff" opacity="0.46"/>
<circle cx="45" cy="267" r="0.8" fill="#fff" opacity="0.35"/>
<circle cx="128" cy="44" r="1.8" fill="#fff" opacity="0.24"/>
<circle cx="211" cy="91" r="2.8" fill="#fff" opacity="0.62"/>
<circle cx="294" cy="138" r="0.8" fill="#fff" opacity="0.51"/>
<circle cx="77" cy="185" r="1.8" fill="#fff" opacity="0.40"/>
<circle cx="160" cy="232" r="2.8" fill="#fff" opacity="0.29"/>
<circle cx="243" cy="9" r="0.8" fill="#fff" opacity="0.18"/>
  <g transform="translate(0 6)" opacity="0.95">
    <path d="M40 205 C78 150 130 150 150 210 C170 150 222 150 260 205 C220 260 185 300 150 330 C115 300 80 260 40 205 Z" fill="#ffffff" opacity="0.12"/>
    <path d="M40 205 C78 150 130 150 150 210 C170 150 222 150 260 205 C220 260 185 300 150 330 C115 300 80 260 40 205 Z" fill="none" stroke="#ffffff" stroke-width="3" opacity="0.42"/>
  </g>
  <circle cx="240" cy="78" r="42" fill="#fff" opacity="0.12"/>
  <path d="M-20 356 C65 320 110 372 182 338 C230 315 260 300 330 335 L330 450 L-20 450 Z" fill="#000" opacity="0.28"/>
  <rect width="300" height="450" fill="url(#shade)"/>
  <rect width="300" height="450" filter="url(#grain)" opacity="0.45"/>
  <text x="150" y="278" text-anchor="middle" font-family="Arial, sans-serif" font-size="10" font-weight="700" letter-spacing="2.5" fill="#ffffff" opacity="0.75">TOMOVERSO ORIGINAL</text>
  <text x="150" y="305" text-anchor="middle" font-family="Georgia, serif" font-size="24" font-weight="800" fill="#ffffff">Garotos que</text>
<text x="150" y="331" text-anchor="middle" font-family="Georgia, serif" font-size="24" font-weight="800" fill="#ffffff">Brilham no Escuro</text>
  <text x="150" y="420" text-anchor="middle" font-family="Arial, sans-serif" font-size="10" font-weight="700" letter-spacing="1.8" fill="#ffffff" opacity="0.72">ROMANCE BL</text>
</svg>