<?xml version="1.0" encoding="UTF-8"?>
<svg xmlns="http://www.w3.org/2000/svg" viewBox="0 0 300 450" width="600" height="900" role="img" aria-labelledby="title desc">
  <title id="title">Garotas de Papel e Fogo</title>
  <desc id="desc">Duas garotas, uma com livro luminoso e outra com chamas, cercadas por páginas queimando.</desc>
  <defs>
    <linearGradient id="bg" x1="0" y1="0" x2="1" y2="1">
      <stop offset="0%" stop-color="#312e81"/>
      <stop offset="58%" stop-color="#a855f7"/>
      <stop offset="100%" stop-color="#22d3ee"/>
    </linearGradient>
    <radialGradient id="glow" cx="50%" cy="35%" r="60%">
      <stop offset="0%" stop-color="#ffffff" stop-opacity="0.42"/>
      <stop offset="100%" stop-color="#ffffff" stop-opacity="0"/>
    </radialGradient>
    <linearGradient id="shade" x1="0" y1="0" x2="0" y2="1">
      <stop offset="0%" stop-color="#000000" stop-opacity="0.05"/>
      <stop offset="55%" stop-color="#000000" stop-opacity="0.1"/>
      <stop offset="100%" stop-color="#000000" stop-opacity="0.88"/>
    </linearGradient>
    <filter id="grain" x="-20%" y="-20%" width="140%" height="140%">
      <feTurbulence type="fractalNoise" baseFrequency="0.85" numOctaves="3" stitchTiles="stitch"/>
      <feColorMatrix type="saturate" values="0"/>
      <feComponentTransfer><feFuncA type="table" tableValues="0 0.12"/></feComponentTransfer>
    </filter>
  </defs>
  <rect width="300" height="450" fill="url(#bg)"/>
  <rect width="300" height="450" fill="url(#glow)"/>
  <circle cx="216" cy="42" r="0.8" fill="#fff" opacity="0.35"/>
<circle cx="299" cy="89" r="1.8" fill="#fff" opacity="0.24"/>
<circle cx="82" cy="136" r="2.8" fill="#fff" opacity="0.62"/>
<circle cx="165" cy="183" r="0.8" fill="#fff" opacity="0.51"/>
<circle cx="248" cy="230" r="1.8" fill="#fff" opacity="0.40"/>
<circle cx="31" cy="7" r="2.8" fill="#fff" opacity="0.29"/>
<circle cx="114" cy="54" r="0.8" fill="#fff" opacity="0.18"/>
<circle cx="197" cy="101" r="1.8" fill="#fff" opacity="0.57"/>
<circle cx="280" cy="148" r="2.8" fill="#fff" opacity="0.46"/>
<circle cx="63" cy="195" r="0.8" fill="#fff" opacity="0.35"/>
<circle cx="146" cy="242" r="1.8" fill="#fff" opacity="0.24"/>
<circle cx="229" cy="19" r="2.8" fill="#fff" opacity="0.62"/>
<circle cx="12" cy="66" r="0.8" fill="#fff" opacity="0.51"/>
<circle cx="95" cy="113" r="1.8" fill="#fff" opacity="0.40"/>
<circle cx="178" cy="160" r="2.8" fill="#fff" opacity="0.29"/>
<circle cx="261" cy="207" r="0.8" fill="#fff" opacity="0.18"/>
<circle cx="44" cy="254" r="1.8" fill="#fff" opacity="0.57"/>
<circle cx="127" cy="31" r="2.8" fill="#fff" opacity="0.46"/>
<circle cx="210" cy="78" r="0.8" fill="#fff" opacity="0.35"/>
<circle cx="293" cy="125" r="1.8" fill="#fff" opacity="0.24"/>
<circle cx="76" cy="172" r="2.8" fill="#fff" opacity="0.62"/>
<circle cx="159" cy="219" r="0.8" fill="#fff" opacity="0.51"/>
<circle cx="242" cy="266" r="1.8" fill="#fff" opacity="0.40"/>
<circle cx="25" cy="43" r="2.8" fill="#fff" opacity="0.29"/>
<circle cx="108" cy="90" r="0.8" fill="#fff" opacity="0.18"/>
<circle cx="191" cy="137" r="1.8" fill="#fff" opacity="0.57"/>
<circle cx="274" cy="184" r="2.8" fill="#fff" opacity="0.46"/>
<circle cx="57" cy="231" r="0.8" fill="#fff" opacity="0.35"/>
<circle cx="140" cy="8" r="1.8" fill="#fff" opacity="0.24"/>
<circle cx="223" cy="55" r="2.8" fill="#fff" opacity="0.62"/>
<circle cx="6" cy="102" r="0.8" fill="#fff" opacity="0.51"/>
<circle cx="89" cy="149" r="1.8" fill="#fff" opacity="0.40"/>
<circle cx="172" cy="196" r="2.8" fill="#fff" opacity="0.29"/>
<circle cx="255" cy="243" r="0.8" fill="#fff" opacity="0.18"/>
  <g transform="translate(0 6)" opacity="0.95">
    <path d="M40 205 C78 150 130 150 150 210 C170 150 222 150 260 205 C220 260 185 300 150 330 C115 300 80 260 40 205 Z" fill="#ffffff" opacity="0.12"/>
    <path d="M40 205 C78 150 130 150 150 210 C170 150 222 150 260 205 C220 260 185 300 150 330 C115 300 80 260 40 205 Z" fill="none" stroke="#ffffff" stroke-width="3" opacity="0.42"/>
  </g>
  <circle cx="240" cy="78" r="42" fill="#fff" opacity="0.12"/>
  <path d="M-20 356 C65 320 110 372 182 338 C230 315 260 300 330 335 L330 450 L-20 450 Z" fill="#000" opacity="0.28"/>
  <rect width="300" height="450" fill="url(#shade)"/>
  <rect width="300" height="450" filter="url(#grain)" opacity="0.45"/>
  <text x="150" y="278" text-anchor="middle" font-family="Arial, sans-serif" font-size="10" font-weight="700" letter-spacing="2.5" fill="#ffffff" opacity="0.75">TOMOVERSO ORIGINAL</text>
  <text x="150" y="305" text-anchor="middle" font-family="Georgia, serif" font-size="24" font-weight="800" fill="#ffffff">Garotas de Papel e</text>
<text x="150" y="331" text-anchor="middle" font-family="Georgia, serif" font-size="24" font-weight="800" fill="#ffffff">Fogo</text>
  <text x="150" y="420" text-anchor="middle" font-family="Arial, sans-serif" font-size="10" font-weight="700" letter-spacing="1.8" fill="#ffffff" opacity="0.72">ROMANCE GL</text>
</svg>