<?xml version="1.0" encoding="UTF-8"?>
<svg xmlns="http://www.w3.org/2000/svg" viewBox="0 0 300 450" width="600" height="900" role="img" aria-labelledby="title desc">
  <title id="title">Maré de Estrelas Afogadas</title>
  <desc id="desc">Mergulhadora e capitão pirata em mar noturno cheio de estrelas submersas brilhantes.</desc>
  <defs>
    <linearGradient id="bg" x1="0" y1="0" x2="1" y2="1">
      <stop offset="0%" stop-color="#450a0a"/>
      <stop offset="58%" stop-color="#dc2626"/>
      <stop offset="100%" stop-color="#fbbf24"/>
    </linearGradient>
    <radialGradient id="glow" cx="50%" cy="35%" r="60%">
      <stop offset="0%" stop-color="#ffffff" stop-opacity="0.42"/>
      <stop offset="100%" stop-color="#ffffff" stop-opacity="0"/>
    </radialGradient>
    <linearGradient id="shade" x1="0" y1="0" x2="0" y2="1">
      <stop offset="0%" stop-color="#000000" stop-opacity="0.05"/>
      <stop offset="55%" stop-color="#000000" stop-opacity="0.1"/>
      <stop offset="100%" stop-color="#000000" stop-opacity="0.88"/>
    </linearGradient>
    <filter id="grain" x="-20%" y="-20%" width="140%" height="140%">
      <feTurbulence type="fractalNoise" baseFrequency="0.85" numOctaves="3" stitchTiles="stitch"/>
      <feColorMatrix type="saturate" values="0"/>
      <feComponentTransfer><feFuncA type="table" tableValues="0 0.12"/></feComponentTransfer>
    </filter>
  </defs>
  <rect width="300" height="450" fill="url(#bg)"/>
  <rect width="300" height="450" fill="url(#glow)"/>
  <circle cx="142" cy="214" r="2.8" fill="#fff" opacity="0.62"/>
<circle cx="225" cy="261" r="0.8" fill="#fff" opacity="0.51"/>
<circle cx="8" cy="38" r="1.8" fill="#fff" opacity="0.40"/>
<circle cx="91" cy="85" r="2.8" fill="#fff" opacity="0.29"/>
<circle cx="174" cy="132" r="0.8" fill="#fff" opacity="0.18"/>
<circle cx="257" cy="179" r="1.8" fill="#fff" opacity="0.57"/>
<circle cx="40" cy="226" r="2.8" fill="#fff" opacity="0.46"/>
<circle cx="123" cy="3" r="0.8" fill="#fff" opacity="0.35"/>
<circle cx="206" cy="50" r="1.8" fill="#fff" opacity="0.24"/>
<circle cx="289" cy="97" r="2.8" fill="#fff" opacity="0.62"/>
<circle cx="72" cy="144" r="0.8" fill="#fff" opacity="0.51"/>
<circle cx="155" cy="191" r="1.8" fill="#fff" opacity="0.40"/>
<circle cx="238" cy="238" r="2.8" fill="#fff" opacity="0.29"/>
<circle cx="21" cy="15" r="0.8" fill="#fff" opacity="0.18"/>
<circle cx="104" cy="62" r="1.8" fill="#fff" opacity="0.57"/>
<circle cx="187" cy="109" r="2.8" fill="#fff" opacity="0.46"/>
<circle cx="270" cy="156" r="0.8" fill="#fff" opacity="0.35"/>
<circle cx="53" cy="203" r="1.8" fill="#fff" opacity="0.24"/>
<circle cx="136" cy="250" r="2.8" fill="#fff" opacity="0.62"/>
<circle cx="219" cy="27" r="0.8" fill="#fff" opacity="0.51"/>
<circle cx="2" cy="74" r="1.8" fill="#fff" opacity="0.40"/>
<circle cx="85" cy="121" r="2.8" fill="#fff" opacity="0.29"/>
<circle cx="168" cy="168" r="0.8" fill="#fff" opacity="0.18"/>
<circle cx="251" cy="215" r="1.8" fill="#fff" opacity="0.57"/>
<circle cx="34" cy="262" r="2.8" fill="#fff" opacity="0.46"/>
<circle cx="117" cy="39" r="0.8" fill="#fff" opacity="0.35"/>
<circle cx="200" cy="86" r="1.8" fill="#fff" opacity="0.24"/>
<circle cx="283" cy="133" r="2.8" fill="#fff" opacity="0.62"/>
<circle cx="66" cy="180" r="0.8" fill="#fff" opacity="0.51"/>
<circle cx="149" cy="227" r="1.8" fill="#fff" opacity="0.40"/>
<circle cx="232" cy="4" r="2.8" fill="#fff" opacity="0.29"/>
<circle cx="15" cy="51" r="0.8" fill="#fff" opacity="0.18"/>
<circle cx="98" cy="98" r="1.8" fill="#fff" opacity="0.57"/>
<circle cx="181" cy="145" r="2.8" fill="#fff" opacity="0.46"/>
  <g transform="translate(0 6)" opacity="0.95">
    <path d="M150 45 L172 130 L255 145 L185 190 L205 275 L150 225 L95 275 L115 190 L45 145 L128 130 Z" fill="#ffffff" opacity="0.12"/>
    <path d="M150 45 L172 130 L255 145 L185 190 L205 275 L150 225 L95 275 L115 190 L45 145 L128 130 Z" fill="none" stroke="#ffffff" stroke-width="3" opacity="0.42"/>
  </g>
  <circle cx="240" cy="78" r="42" fill="#fff" opacity="0.12"/>
  <path d="M-20 356 C65 320 110 372 182 338 C230 315 260 300 330 335 L330 450 L-20 450 Z" fill="#000" opacity="0.28"/>
  <rect width="300" height="450" fill="url(#shade)"/>
  <rect width="300" height="450" filter="url(#grain)" opacity="0.45"/>
  <text x="150" y="278" text-anchor="middle" font-family="Arial, sans-serif" font-size="10" font-weight="700" letter-spacing="2.5" fill="#ffffff" opacity="0.75">TOMOVERSO ORIGINAL</text>
  <text x="150" y="305" text-anchor="middle" font-family="Georgia, serif" font-size="24" font-weight="800" fill="#ffffff">Maré de Estrelas</text>
<text x="150" y="331" text-anchor="middle" font-family="Georgia, serif" font-size="24" font-weight="800" fill="#ffffff">Afogadas</text>
  <text x="150" y="420" text-anchor="middle" font-family="Arial, sans-serif" font-size="10" font-weight="700" letter-spacing="1.8" fill="#ffffff" opacity="0.72">FANTASIA</text>
</svg>