<?xml version="1.0" encoding="UTF-8"?>
<svg xmlns="http://www.w3.org/2000/svg" viewBox="0 0 300 450" width="600" height="900" role="img" aria-labelledby="title desc">
  <title id="title">Não Olhe para o Espelho Depois das Três</title>
  <desc id="desc">Garota em quarto escuro encarando reflexo diferente no espelho com relógio marcando 3:00.</desc>
  <defs>
    <linearGradient id="bg" x1="0" y1="0" x2="1" y2="1">
      <stop offset="0%" stop-color="#1f2937"/>
      <stop offset="58%" stop-color="#f97316"/>
      <stop offset="100%" stop-color="#fde68a"/>
    </linearGradient>
    <radialGradient id="glow" cx="50%" cy="35%" r="60%">
      <stop offset="0%" stop-color="#ffffff" stop-opacity="0.42"/>
      <stop offset="100%" stop-color="#ffffff" stop-opacity="0"/>
    </radialGradient>
    <linearGradient id="shade" x1="0" y1="0" x2="0" y2="1">
      <stop offset="0%" stop-color="#000000" stop-opacity="0.05"/>
      <stop offset="55%" stop-color="#000000" stop-opacity="0.1"/>
      <stop offset="100%" stop-color="#000000" stop-opacity="0.88"/>
    </linearGradient>
    <filter id="grain" x="-20%" y="-20%" width="140%" height="140%">
      <feTurbulence type="fractalNoise" baseFrequency="0.85" numOctaves="3" stitchTiles="stitch"/>
      <feColorMatrix type="saturate" values="0"/>
      <feComponentTransfer><feFuncA type="table" tableValues="0 0.12"/></feComponentTransfer>
    </filter>
  </defs>
  <rect width="300" height="450" fill="url(#bg)"/>
  <rect width="300" height="450" fill="url(#glow)"/>
  <circle cx="63" cy="51" r="0.8" fill="#fff" opacity="0.35"/>
<circle cx="146" cy="98" r="1.8" fill="#fff" opacity="0.24"/>
<circle cx="229" cy="145" r="2.8" fill="#fff" opacity="0.62"/>
<circle cx="12" cy="192" r="0.8" fill="#fff" opacity="0.51"/>
<circle cx="95" cy="239" r="1.8" fill="#fff" opacity="0.40"/>
<circle cx="178" cy="16" r="2.8" fill="#fff" opacity="0.29"/>
<circle cx="261" cy="63" r="0.8" fill="#fff" opacity="0.18"/>
<circle cx="44" cy="110" r="1.8" fill="#fff" opacity="0.57"/>
<circle cx="127" cy="157" r="2.8" fill="#fff" opacity="0.46"/>
<circle cx="210" cy="204" r="0.8" fill="#fff" opacity="0.35"/>
<circle cx="293" cy="251" r="1.8" fill="#fff" opacity="0.24"/>
<circle cx="76" cy="28" r="2.8" fill="#fff" opacity="0.62"/>
<circle cx="159" cy="75" r="0.8" fill="#fff" opacity="0.51"/>
<circle cx="242" cy="122" r="1.8" fill="#fff" opacity="0.40"/>
<circle cx="25" cy="169" r="2.8" fill="#fff" opacity="0.29"/>
<circle cx="108" cy="216" r="0.8" fill="#fff" opacity="0.18"/>
<circle cx="191" cy="263" r="1.8" fill="#fff" opacity="0.57"/>
<circle cx="274" cy="40" r="2.8" fill="#fff" opacity="0.46"/>
<circle cx="57" cy="87" r="0.8" fill="#fff" opacity="0.35"/>
<circle cx="140" cy="134" r="1.8" fill="#fff" opacity="0.24"/>
<circle cx="223" cy="181" r="2.8" fill="#fff" opacity="0.62"/>
<circle cx="6" cy="228" r="0.8" fill="#fff" opacity="0.51"/>
<circle cx="89" cy="5" r="1.8" fill="#fff" opacity="0.40"/>
<circle cx="172" cy="52" r="2.8" fill="#fff" opacity="0.29"/>
<circle cx="255" cy="99" r="0.8" fill="#fff" opacity="0.18"/>
<circle cx="38" cy="146" r="1.8" fill="#fff" opacity="0.57"/>
<circle cx="121" cy="193" r="2.8" fill="#fff" opacity="0.46"/>
<circle cx="204" cy="240" r="0.8" fill="#fff" opacity="0.35"/>
<circle cx="287" cy="17" r="1.8" fill="#fff" opacity="0.24"/>
<circle cx="70" cy="64" r="2.8" fill="#fff" opacity="0.62"/>
<circle cx="153" cy="111" r="0.8" fill="#fff" opacity="0.51"/>
<circle cx="236" cy="158" r="1.8" fill="#fff" opacity="0.40"/>
<circle cx="19" cy="205" r="2.8" fill="#fff" opacity="0.29"/>
<circle cx="102" cy="252" r="0.8" fill="#fff" opacity="0.18"/>
  <g transform="translate(0 6)" opacity="0.95">
    <path d="M65 300 C85 120 215 120 235 300 C205 255 175 335 150 275 C125 335 95 255 65 300 Z" fill="#ffffff" opacity="0.12"/>
    <path d="M65 300 C85 120 215 120 235 300 C205 255 175 335 150 275 C125 335 95 255 65 300 Z" fill="none" stroke="#ffffff" stroke-width="3" opacity="0.42"/>
  </g>
  <circle cx="240" cy="78" r="42" fill="#fff" opacity="0.12"/>
  <path d="M-20 356 C65 320 110 372 182 338 C230 315 260 300 330 335 L330 450 L-20 450 Z" fill="#000" opacity="0.28"/>
  <rect width="300" height="450" fill="url(#shade)"/>
  <rect width="300" height="450" filter="url(#grain)" opacity="0.45"/>
  <text x="150" y="278" text-anchor="middle" font-family="Arial, sans-serif" font-size="10" font-weight="700" letter-spacing="2.5" fill="#ffffff" opacity="0.75">TOMOVERSO ORIGINAL</text>
  <text x="150" y="305" text-anchor="middle" font-family="Georgia, serif" font-size="24" font-weight="800" fill="#ffffff">Não Olhe para o</text>
<text x="150" y="331" text-anchor="middle" font-family="Georgia, serif" font-size="24" font-weight="800" fill="#ffffff">Espelho Depois das</text>
<text x="150" y="357" text-anchor="middle" font-family="Georgia, serif" font-size="24" font-weight="800" fill="#ffffff">Três</text>
  <text x="150" y="420" text-anchor="middle" font-family="Arial, sans-serif" font-size="10" font-weight="700" letter-spacing="1.8" fill="#ffffff" opacity="0.72">TERROR LEVE</text>
</svg>