<?xml version="1.0" encoding="UTF-8"?>
<svg xmlns="http://www.w3.org/2000/svg" viewBox="0 0 300 450" width="600" height="900" role="img" aria-labelledby="title desc">
  <title id="title">Notas de Rodapé para um Amor Idiota</title>
  <desc id="desc">Garota e garoto escondidos atrás de livros com notas brilhantes e corações rabiscados.</desc>
  <defs>
    <linearGradient id="bg" x1="0" y1="0" x2="1" y2="1">
      <stop offset="0%" stop-color="#064e3b"/>
      <stop offset="58%" stop-color="#10b981"/>
      <stop offset="100%" stop-color="#fef3c7"/>
    </linearGradient>
    <radialGradient id="glow" cx="50%" cy="35%" r="60%">
      <stop offset="0%" stop-color="#ffffff" stop-opacity="0.42"/>
      <stop offset="100%" stop-color="#ffffff" stop-opacity="0"/>
    </radialGradient>
    <linearGradient id="shade" x1="0" y1="0" x2="0" y2="1">
      <stop offset="0%" stop-color="#000000" stop-opacity="0.05"/>
      <stop offset="55%" stop-color="#000000" stop-opacity="0.1"/>
      <stop offset="100%" stop-color="#000000" stop-opacity="0.88"/>
    </linearGradient>
    <filter id="grain" x="-20%" y="-20%" width="140%" height="140%">
      <feTurbulence type="fractalNoise" baseFrequency="0.85" numOctaves="3" stitchTiles="stitch"/>
      <feColorMatrix type="saturate" values="0"/>
      <feComponentTransfer><feFuncA type="table" tableValues="0 0.12"/></feComponentTransfer>
    </filter>
  </defs>
  <rect width="300" height="450" fill="url(#bg)"/>
  <rect width="300" height="450" fill="url(#glow)"/>
  <circle cx="295" cy="205" r="2.8" fill="#fff" opacity="0.62"/>
<circle cx="78" cy="252" r="0.8" fill="#fff" opacity="0.51"/>
<circle cx="161" cy="29" r="1.8" fill="#fff" opacity="0.40"/>
<circle cx="244" cy="76" r="2.8" fill="#fff" opacity="0.29"/>
<circle cx="27" cy="123" r="0.8" fill="#fff" opacity="0.18"/>
<circle cx="110" cy="170" r="1.8" fill="#fff" opacity="0.57"/>
<circle cx="193" cy="217" r="2.8" fill="#fff" opacity="0.46"/>
<circle cx="276" cy="264" r="0.8" fill="#fff" opacity="0.35"/>
<circle cx="59" cy="41" r="1.8" fill="#fff" opacity="0.24"/>
<circle cx="142" cy="88" r="2.8" fill="#fff" opacity="0.62"/>
<circle cx="225" cy="135" r="0.8" fill="#fff" opacity="0.51"/>
<circle cx="8" cy="182" r="1.8" fill="#fff" opacity="0.40"/>
<circle cx="91" cy="229" r="2.8" fill="#fff" opacity="0.29"/>
<circle cx="174" cy="6" r="0.8" fill="#fff" opacity="0.18"/>
<circle cx="257" cy="53" r="1.8" fill="#fff" opacity="0.57"/>
<circle cx="40" cy="100" r="2.8" fill="#fff" opacity="0.46"/>
<circle cx="123" cy="147" r="0.8" fill="#fff" opacity="0.35"/>
<circle cx="206" cy="194" r="1.8" fill="#fff" opacity="0.24"/>
<circle cx="289" cy="241" r="2.8" fill="#fff" opacity="0.62"/>
<circle cx="72" cy="18" r="0.8" fill="#fff" opacity="0.51"/>
<circle cx="155" cy="65" r="1.8" fill="#fff" opacity="0.40"/>
<circle cx="238" cy="112" r="2.8" fill="#fff" opacity="0.29"/>
<circle cx="21" cy="159" r="0.8" fill="#fff" opacity="0.18"/>
<circle cx="104" cy="206" r="1.8" fill="#fff" opacity="0.57"/>
<circle cx="187" cy="253" r="2.8" fill="#fff" opacity="0.46"/>
<circle cx="270" cy="30" r="0.8" fill="#fff" opacity="0.35"/>
<circle cx="53" cy="77" r="1.8" fill="#fff" opacity="0.24"/>
<circle cx="136" cy="124" r="2.8" fill="#fff" opacity="0.62"/>
<circle cx="219" cy="171" r="0.8" fill="#fff" opacity="0.51"/>
<circle cx="2" cy="218" r="1.8" fill="#fff" opacity="0.40"/>
<circle cx="85" cy="265" r="2.8" fill="#fff" opacity="0.29"/>
<circle cx="168" cy="42" r="0.8" fill="#fff" opacity="0.18"/>
<circle cx="251" cy="89" r="1.8" fill="#fff" opacity="0.57"/>
<circle cx="34" cy="136" r="2.8" fill="#fff" opacity="0.46"/>
  <g transform="translate(0 6)" opacity="0.95">
    <path d="M50 180 Q150 70 250 180 Q150 330 50 180 Z" fill="#ffffff" opacity="0.12"/>
    <path d="M50 180 Q150 70 250 180 Q150 330 50 180 Z" fill="none" stroke="#ffffff" stroke-width="3" opacity="0.42"/>
  </g>
  <circle cx="240" cy="78" r="42" fill="#fff" opacity="0.12"/>
  <path d="M-20 356 C65 320 110 372 182 338 C230 315 260 300 330 335 L330 450 L-20 450 Z" fill="#000" opacity="0.28"/>
  <rect width="300" height="450" fill="url(#shade)"/>
  <rect width="300" height="450" filter="url(#grain)" opacity="0.45"/>
  <text x="150" y="278" text-anchor="middle" font-family="Arial, sans-serif" font-size="10" font-weight="700" letter-spacing="2.5" fill="#ffffff" opacity="0.75">TOMOVERSO ORIGINAL</text>
  <text x="150" y="305" text-anchor="middle" font-family="Georgia, serif" font-size="24" font-weight="800" fill="#ffffff">Notas de Rodapé</text>
<text x="150" y="331" text-anchor="middle" font-family="Georgia, serif" font-size="24" font-weight="800" fill="#ffffff">para um Amor</text>
<text x="150" y="357" text-anchor="middle" font-family="Georgia, serif" font-size="24" font-weight="800" fill="#ffffff">Idiota</text>
  <text x="150" y="420" text-anchor="middle" font-family="Arial, sans-serif" font-size="10" font-weight="700" letter-spacing="1.8" fill="#ffffff" opacity="0.72">COMÉDIA ROMÂNTICA</text>
</svg>