<?xml version="1.0" encoding="UTF-8"?>
<svg xmlns="http://www.w3.org/2000/svg" viewBox="0 0 300 450" width="600" height="900" role="img" aria-labelledby="title desc">
  <title id="title">O Castelo no Fundo do Shopping</title>
  <desc id="desc">Amigos entrando em provador que abre para castelo mágico dentro de shopping iluminado.</desc>
  <defs>
    <linearGradient id="bg" x1="0" y1="0" x2="1" y2="1">
      <stop offset="0%" stop-color="#111827"/>
      <stop offset="58%" stop-color="#ef4444"/>
      <stop offset="100%" stop-color="#f59e0b"/>
    </linearGradient>
    <radialGradient id="glow" cx="50%" cy="35%" r="60%">
      <stop offset="0%" stop-color="#ffffff" stop-opacity="0.42"/>
      <stop offset="100%" stop-color="#ffffff" stop-opacity="0"/>
    </radialGradient>
    <linearGradient id="shade" x1="0" y1="0" x2="0" y2="1">
      <stop offset="0%" stop-color="#000000" stop-opacity="0.05"/>
      <stop offset="55%" stop-color="#000000" stop-opacity="0.1"/>
      <stop offset="100%" stop-color="#000000" stop-opacity="0.88"/>
    </linearGradient>
    <filter id="grain" x="-20%" y="-20%" width="140%" height="140%">
      <feTurbulence type="fractalNoise" baseFrequency="0.85" numOctaves="3" stitchTiles="stitch"/>
      <feColorMatrix type="saturate" values="0"/>
      <feComponentTransfer><feFuncA type="table" tableValues="0 0.12"/></feComponentTransfer>
    </filter>
  </defs>
  <rect width="300" height="450" fill="url(#bg)"/>
  <rect width="300" height="450" fill="url(#glow)"/>
  <circle cx="261" cy="147" r="0.8" fill="#fff" opacity="0.51"/>
<circle cx="44" cy="194" r="1.8" fill="#fff" opacity="0.40"/>
<circle cx="127" cy="241" r="2.8" fill="#fff" opacity="0.29"/>
<circle cx="210" cy="18" r="0.8" fill="#fff" opacity="0.18"/>
<circle cx="293" cy="65" r="1.8" fill="#fff" opacity="0.57"/>
<circle cx="76" cy="112" r="2.8" fill="#fff" opacity="0.46"/>
<circle cx="159" cy="159" r="0.8" fill="#fff" opacity="0.35"/>
<circle cx="242" cy="206" r="1.8" fill="#fff" opacity="0.24"/>
<circle cx="25" cy="253" r="2.8" fill="#fff" opacity="0.62"/>
<circle cx="108" cy="30" r="0.8" fill="#fff" opacity="0.51"/>
<circle cx="191" cy="77" r="1.8" fill="#fff" opacity="0.40"/>
<circle cx="274" cy="124" r="2.8" fill="#fff" opacity="0.29"/>
<circle cx="57" cy="171" r="0.8" fill="#fff" opacity="0.18"/>
<circle cx="140" cy="218" r="1.8" fill="#fff" opacity="0.57"/>
<circle cx="223" cy="265" r="2.8" fill="#fff" opacity="0.46"/>
<circle cx="6" cy="42" r="0.8" fill="#fff" opacity="0.35"/>
<circle cx="89" cy="89" r="1.8" fill="#fff" opacity="0.24"/>
<circle cx="172" cy="136" r="2.8" fill="#fff" opacity="0.62"/>
<circle cx="255" cy="183" r="0.8" fill="#fff" opacity="0.51"/>
<circle cx="38" cy="230" r="1.8" fill="#fff" opacity="0.40"/>
<circle cx="121" cy="7" r="2.8" fill="#fff" opacity="0.29"/>
<circle cx="204" cy="54" r="0.8" fill="#fff" opacity="0.18"/>
<circle cx="287" cy="101" r="1.8" fill="#fff" opacity="0.57"/>
<circle cx="70" cy="148" r="2.8" fill="#fff" opacity="0.46"/>
<circle cx="153" cy="195" r="0.8" fill="#fff" opacity="0.35"/>
<circle cx="236" cy="242" r="1.8" fill="#fff" opacity="0.24"/>
<circle cx="19" cy="19" r="2.8" fill="#fff" opacity="0.62"/>
<circle cx="102" cy="66" r="0.8" fill="#fff" opacity="0.51"/>
<circle cx="185" cy="113" r="1.8" fill="#fff" opacity="0.40"/>
<circle cx="268" cy="160" r="2.8" fill="#fff" opacity="0.29"/>
<circle cx="51" cy="207" r="0.8" fill="#fff" opacity="0.18"/>
<circle cx="134" cy="254" r="1.8" fill="#fff" opacity="0.57"/>
<circle cx="217" cy="31" r="2.8" fill="#fff" opacity="0.46"/>
<circle cx="0" cy="78" r="0.8" fill="#fff" opacity="0.35"/>
  <g transform="translate(0 6)" opacity="0.95">
    <path d="M70 320 L70 160 L115 160 L115 95 L150 95 L150 320 Z M165 320 L165 125 L220 125 L220 320 Z" fill="#ffffff" opacity="0.12"/>
    <path d="M70 320 L70 160 L115 160 L115 95 L150 95 L150 320 Z M165 320 L165 125 L220 125 L220 320 Z" fill="none" stroke="#ffffff" stroke-width="3" opacity="0.42"/>
  </g>
  <circle cx="240" cy="78" r="42" fill="#fff" opacity="0.12"/>
  <path d="M-20 356 C65 320 110 372 182 338 C230 315 260 300 330 335 L330 450 L-20 450 Z" fill="#000" opacity="0.28"/>
  <rect width="300" height="450" fill="url(#shade)"/>
  <rect width="300" height="450" filter="url(#grain)" opacity="0.45"/>
  <text x="150" y="278" text-anchor="middle" font-family="Arial, sans-serif" font-size="10" font-weight="700" letter-spacing="2.5" fill="#ffffff" opacity="0.75">TOMOVERSO ORIGINAL</text>
  <text x="150" y="305" text-anchor="middle" font-family="Georgia, serif" font-size="24" font-weight="800" fill="#ffffff">O Castelo no Fundo</text>
<text x="150" y="331" text-anchor="middle" font-family="Georgia, serif" font-size="24" font-weight="800" fill="#ffffff">do Shopping</text>
  <text x="150" y="420" text-anchor="middle" font-family="Arial, sans-serif" font-size="10" font-weight="700" letter-spacing="1.8" fill="#ffffff" opacity="0.72">FANTASIA URBANA</text>
</svg>