<?xml version="1.0" encoding="UTF-8"?>
<svg xmlns="http://www.w3.org/2000/svg" viewBox="0 0 300 450" width="600" height="900" role="img" aria-labelledby="title desc">
  <title id="title">O Contrato do Beijo Falso</title>
  <desc id="desc">Casal adolescente em uniforme escolar quase se beijando sob chuva de celulares e flashes, com clima de fofoca e romance.</desc>
  <defs>
    <linearGradient id="bg" x1="0" y1="0" x2="1" y2="1">
      <stop offset="0%" stop-color="#24124d"/>
      <stop offset="58%" stop-color="#7c3aed"/>
      <stop offset="100%" stop-color="#f472b6"/>
    </linearGradient>
    <radialGradient id="glow" cx="50%" cy="35%" r="60%">
      <stop offset="0%" stop-color="#ffffff" stop-opacity="0.42"/>
      <stop offset="100%" stop-color="#ffffff" stop-opacity="0"/>
    </radialGradient>
    <linearGradient id="shade" x1="0" y1="0" x2="0" y2="1">
      <stop offset="0%" stop-color="#000000" stop-opacity="0.05"/>
      <stop offset="55%" stop-color="#000000" stop-opacity="0.1"/>
      <stop offset="100%" stop-color="#000000" stop-opacity="0.88"/>
    </linearGradient>
    <filter id="grain" x="-20%" y="-20%" width="140%" height="140%">
      <feTurbulence type="fractalNoise" baseFrequency="0.85" numOctaves="3" stitchTiles="stitch"/>
      <feColorMatrix type="saturate" values="0"/>
      <feComponentTransfer><feFuncA type="table" tableValues="0 0.12"/></feComponentTransfer>
    </filter>
  </defs>
  <rect width="300" height="450" fill="url(#bg)"/>
  <rect width="300" height="450" fill="url(#glow)"/>
  <circle cx="0" cy="0" r="0.8" fill="#fff" opacity="0.18"/>
<circle cx="83" cy="47" r="1.8" fill="#fff" opacity="0.57"/>
<circle cx="166" cy="94" r="2.8" fill="#fff" opacity="0.46"/>
<circle cx="249" cy="141" r="0.8" fill="#fff" opacity="0.35"/>
<circle cx="32" cy="188" r="1.8" fill="#fff" opacity="0.24"/>
<circle cx="115" cy="235" r="2.8" fill="#fff" opacity="0.62"/>
<circle cx="198" cy="12" r="0.8" fill="#fff" opacity="0.51"/>
<circle cx="281" cy="59" r="1.8" fill="#fff" opacity="0.40"/>
<circle cx="64" cy="106" r="2.8" fill="#fff" opacity="0.29"/>
<circle cx="147" cy="153" r="0.8" fill="#fff" opacity="0.18"/>
<circle cx="230" cy="200" r="1.8" fill="#fff" opacity="0.57"/>
<circle cx="13" cy="247" r="2.8" fill="#fff" opacity="0.46"/>
<circle cx="96" cy="24" r="0.8" fill="#fff" opacity="0.35"/>
<circle cx="179" cy="71" r="1.8" fill="#fff" opacity="0.24"/>
<circle cx="262" cy="118" r="2.8" fill="#fff" opacity="0.62"/>
<circle cx="45" cy="165" r="0.8" fill="#fff" opacity="0.51"/>
<circle cx="128" cy="212" r="1.8" fill="#fff" opacity="0.40"/>
<circle cx="211" cy="259" r="2.8" fill="#fff" opacity="0.29"/>
<circle cx="294" cy="36" r="0.8" fill="#fff" opacity="0.18"/>
<circle cx="77" cy="83" r="1.8" fill="#fff" opacity="0.57"/>
<circle cx="160" cy="130" r="2.8" fill="#fff" opacity="0.46"/>
<circle cx="243" cy="177" r="0.8" fill="#fff" opacity="0.35"/>
<circle cx="26" cy="224" r="1.8" fill="#fff" opacity="0.24"/>
<circle cx="109" cy="1" r="2.8" fill="#fff" opacity="0.62"/>
<circle cx="192" cy="48" r="0.8" fill="#fff" opacity="0.51"/>
<circle cx="275" cy="95" r="1.8" fill="#fff" opacity="0.40"/>
<circle cx="58" cy="142" r="2.8" fill="#fff" opacity="0.29"/>
<circle cx="141" cy="189" r="0.8" fill="#fff" opacity="0.18"/>
<circle cx="224" cy="236" r="1.8" fill="#fff" opacity="0.57"/>
<circle cx="7" cy="13" r="2.8" fill="#fff" opacity="0.46"/>
<circle cx="90" cy="60" r="0.8" fill="#fff" opacity="0.35"/>
<circle cx="173" cy="107" r="1.8" fill="#fff" opacity="0.24"/>
<circle cx="256" cy="154" r="2.8" fill="#fff" opacity="0.62"/>
<circle cx="39" cy="201" r="0.8" fill="#fff" opacity="0.51"/>
  <g transform="translate(0 6)" opacity="0.95">
    <path d="M35 200 C75 145 125 155 150 205 C175 155 225 145 265 200 C222 265 180 310 150 335 C120 310 78 265 35 200 Z" fill="#ffffff" opacity="0.12"/>
    <path d="M35 200 C75 145 125 155 150 205 C175 155 225 145 265 200 C222 265 180 310 150 335 C120 310 78 265 35 200 Z" fill="none" stroke="#ffffff" stroke-width="3" opacity="0.42"/>
  </g>
  <circle cx="240" cy="78" r="42" fill="#fff" opacity="0.12"/>
  <path d="M-20 356 C65 320 110 372 182 338 C230 315 260 300 330 335 L330 450 L-20 450 Z" fill="#000" opacity="0.28"/>
  <rect width="300" height="450" fill="url(#shade)"/>
  <rect width="300" height="450" filter="url(#grain)" opacity="0.45"/>
  <text x="150" y="278" text-anchor="middle" font-family="Arial, sans-serif" font-size="10" font-weight="700" letter-spacing="2.5" fill="#ffffff" opacity="0.75">TOMOVERSO ORIGINAL</text>
  <text x="150" y="305" text-anchor="middle" font-family="Georgia, serif" font-size="24" font-weight="800" fill="#ffffff">O Contrato do</text>
<text x="150" y="331" text-anchor="middle" font-family="Georgia, serif" font-size="24" font-weight="800" fill="#ffffff">Beijo Falso</text>
  <text x="150" y="420" text-anchor="middle" font-family="Arial, sans-serif" font-size="10" font-weight="700" letter-spacing="1.8" fill="#ffffff" opacity="0.72">ROMANCE</text>
</svg>