<?xml version="1.0" encoding="UTF-8"?>
<svg xmlns="http://www.w3.org/2000/svg" viewBox="0 0 300 450" width="600" height="900" role="img" aria-labelledby="title desc">
  <title id="title">O Exorcista do Último Ano</title>
  <desc id="desc">Garoto com mochila e talismãs enfrentando fantasmas em corredor escolar à noite.</desc>
  <defs>
    <linearGradient id="bg" x1="0" y1="0" x2="1" y2="1">
      <stop offset="0%" stop-color="#1f2937"/>
      <stop offset="58%" stop-color="#f97316"/>
      <stop offset="100%" stop-color="#fde68a"/>
    </linearGradient>
    <radialGradient id="glow" cx="50%" cy="35%" r="60%">
      <stop offset="0%" stop-color="#ffffff" stop-opacity="0.42"/>
      <stop offset="100%" stop-color="#ffffff" stop-opacity="0"/>
    </radialGradient>
    <linearGradient id="shade" x1="0" y1="0" x2="0" y2="1">
      <stop offset="0%" stop-color="#000000" stop-opacity="0.05"/>
      <stop offset="55%" stop-color="#000000" stop-opacity="0.1"/>
      <stop offset="100%" stop-color="#000000" stop-opacity="0.88"/>
    </linearGradient>
    <filter id="grain" x="-20%" y="-20%" width="140%" height="140%">
      <feTurbulence type="fractalNoise" baseFrequency="0.85" numOctaves="3" stitchTiles="stitch"/>
      <feColorMatrix type="saturate" values="0"/>
      <feComponentTransfer><feFuncA type="table" tableValues="0 0.12"/></feComponentTransfer>
    </filter>
  </defs>
  <rect width="300" height="450" fill="url(#bg)"/>
  <rect width="300" height="450" fill="url(#glow)"/>
  <circle cx="193" cy="31" r="2.8" fill="#fff" opacity="0.29"/>
<circle cx="276" cy="78" r="0.8" fill="#fff" opacity="0.18"/>
<circle cx="59" cy="125" r="1.8" fill="#fff" opacity="0.57"/>
<circle cx="142" cy="172" r="2.8" fill="#fff" opacity="0.46"/>
<circle cx="225" cy="219" r="0.8" fill="#fff" opacity="0.35"/>
<circle cx="8" cy="266" r="1.8" fill="#fff" opacity="0.24"/>
<circle cx="91" cy="43" r="2.8" fill="#fff" opacity="0.62"/>
<circle cx="174" cy="90" r="0.8" fill="#fff" opacity="0.51"/>
<circle cx="257" cy="137" r="1.8" fill="#fff" opacity="0.40"/>
<circle cx="40" cy="184" r="2.8" fill="#fff" opacity="0.29"/>
<circle cx="123" cy="231" r="0.8" fill="#fff" opacity="0.18"/>
<circle cx="206" cy="8" r="1.8" fill="#fff" opacity="0.57"/>
<circle cx="289" cy="55" r="2.8" fill="#fff" opacity="0.46"/>
<circle cx="72" cy="102" r="0.8" fill="#fff" opacity="0.35"/>
<circle cx="155" cy="149" r="1.8" fill="#fff" opacity="0.24"/>
<circle cx="238" cy="196" r="2.8" fill="#fff" opacity="0.62"/>
<circle cx="21" cy="243" r="0.8" fill="#fff" opacity="0.51"/>
<circle cx="104" cy="20" r="1.8" fill="#fff" opacity="0.40"/>
<circle cx="187" cy="67" r="2.8" fill="#fff" opacity="0.29"/>
<circle cx="270" cy="114" r="0.8" fill="#fff" opacity="0.18"/>
<circle cx="53" cy="161" r="1.8" fill="#fff" opacity="0.57"/>
<circle cx="136" cy="208" r="2.8" fill="#fff" opacity="0.46"/>
<circle cx="219" cy="255" r="0.8" fill="#fff" opacity="0.35"/>
<circle cx="2" cy="32" r="1.8" fill="#fff" opacity="0.24"/>
<circle cx="85" cy="79" r="2.8" fill="#fff" opacity="0.62"/>
<circle cx="168" cy="126" r="0.8" fill="#fff" opacity="0.51"/>
<circle cx="251" cy="173" r="1.8" fill="#fff" opacity="0.40"/>
<circle cx="34" cy="220" r="2.8" fill="#fff" opacity="0.29"/>
<circle cx="117" cy="267" r="0.8" fill="#fff" opacity="0.18"/>
<circle cx="200" cy="44" r="1.8" fill="#fff" opacity="0.57"/>
<circle cx="283" cy="91" r="2.8" fill="#fff" opacity="0.46"/>
<circle cx="66" cy="138" r="0.8" fill="#fff" opacity="0.35"/>
<circle cx="149" cy="185" r="1.8" fill="#fff" opacity="0.24"/>
<circle cx="232" cy="232" r="2.8" fill="#fff" opacity="0.62"/>
  <g transform="translate(0 6)" opacity="0.95">
    <path d="M150 45 C235 65 260 160 222 235 C185 315 115 315 78 235 C40 160 65 65 150 45 Z" fill="#ffffff" opacity="0.12"/>
    <path d="M150 45 C235 65 260 160 222 235 C185 315 115 315 78 235 C40 160 65 65 150 45 Z" fill="none" stroke="#ffffff" stroke-width="3" opacity="0.42"/>
  </g>
  <circle cx="240" cy="78" r="42" fill="#fff" opacity="0.12"/>
  <path d="M-20 356 C65 320 110 372 182 338 C230 315 260 300 330 335 L330 450 L-20 450 Z" fill="#000" opacity="0.28"/>
  <rect width="300" height="450" fill="url(#shade)"/>
  <rect width="300" height="450" filter="url(#grain)" opacity="0.45"/>
  <text x="150" y="278" text-anchor="middle" font-family="Arial, sans-serif" font-size="10" font-weight="700" letter-spacing="2.5" fill="#ffffff" opacity="0.75">TOMOVERSO ORIGINAL</text>
  <text x="150" y="305" text-anchor="middle" font-family="Georgia, serif" font-size="24" font-weight="800" fill="#ffffff">O Exorcista do</text>
<text x="150" y="331" text-anchor="middle" font-family="Georgia, serif" font-size="24" font-weight="800" fill="#ffffff">Último Ano</text>
  <text x="150" y="420" text-anchor="middle" font-family="Arial, sans-serif" font-size="10" font-weight="700" letter-spacing="1.8" fill="#ffffff" opacity="0.72">SOBRENATURAL</text>
</svg>