<?xml version="1.0" encoding="UTF-8"?>
<svg xmlns="http://www.w3.org/2000/svg" viewBox="0 0 300 450" width="600" height="900" role="img" aria-labelledby="title desc">
  <title id="title">O Garoto que Vendia Finais Felizes</title>
  <desc id="desc">Loja mágica estreita com frascos dourados, garoto vendedor e garota segurando memória luminosa.</desc>
  <defs>
    <linearGradient id="bg" x1="0" y1="0" x2="1" y2="1">
      <stop offset="0%" stop-color="#3b0764"/>
      <stop offset="58%" stop-color="#db2777"/>
      <stop offset="100%" stop-color="#fde68a"/>
    </linearGradient>
    <radialGradient id="glow" cx="50%" cy="35%" r="60%">
      <stop offset="0%" stop-color="#ffffff" stop-opacity="0.42"/>
      <stop offset="100%" stop-color="#ffffff" stop-opacity="0"/>
    </radialGradient>
    <linearGradient id="shade" x1="0" y1="0" x2="0" y2="1">
      <stop offset="0%" stop-color="#000000" stop-opacity="0.05"/>
      <stop offset="55%" stop-color="#000000" stop-opacity="0.1"/>
      <stop offset="100%" stop-color="#000000" stop-opacity="0.88"/>
    </linearGradient>
    <filter id="grain" x="-20%" y="-20%" width="140%" height="140%">
      <feTurbulence type="fractalNoise" baseFrequency="0.85" numOctaves="3" stitchTiles="stitch"/>
      <feColorMatrix type="saturate" values="0"/>
      <feComponentTransfer><feFuncA type="table" tableValues="0 0.12"/></feComponentTransfer>
    </filter>
  </defs>
  <rect width="300" height="450" fill="url(#bg)"/>
  <rect width="300" height="450" fill="url(#glow)"/>
  <circle cx="74" cy="98" r="1.8" fill="#fff" opacity="0.40"/>
<circle cx="157" cy="145" r="2.8" fill="#fff" opacity="0.29"/>
<circle cx="240" cy="192" r="0.8" fill="#fff" opacity="0.18"/>
<circle cx="23" cy="239" r="1.8" fill="#fff" opacity="0.57"/>
<circle cx="106" cy="16" r="2.8" fill="#fff" opacity="0.46"/>
<circle cx="189" cy="63" r="0.8" fill="#fff" opacity="0.35"/>
<circle cx="272" cy="110" r="1.8" fill="#fff" opacity="0.24"/>
<circle cx="55" cy="157" r="2.8" fill="#fff" opacity="0.62"/>
<circle cx="138" cy="204" r="0.8" fill="#fff" opacity="0.51"/>
<circle cx="221" cy="251" r="1.8" fill="#fff" opacity="0.40"/>
<circle cx="4" cy="28" r="2.8" fill="#fff" opacity="0.29"/>
<circle cx="87" cy="75" r="0.8" fill="#fff" opacity="0.18"/>
<circle cx="170" cy="122" r="1.8" fill="#fff" opacity="0.57"/>
<circle cx="253" cy="169" r="2.8" fill="#fff" opacity="0.46"/>
<circle cx="36" cy="216" r="0.8" fill="#fff" opacity="0.35"/>
<circle cx="119" cy="263" r="1.8" fill="#fff" opacity="0.24"/>
<circle cx="202" cy="40" r="2.8" fill="#fff" opacity="0.62"/>
<circle cx="285" cy="87" r="0.8" fill="#fff" opacity="0.51"/>
<circle cx="68" cy="134" r="1.8" fill="#fff" opacity="0.40"/>
<circle cx="151" cy="181" r="2.8" fill="#fff" opacity="0.29"/>
<circle cx="234" cy="228" r="0.8" fill="#fff" opacity="0.18"/>
<circle cx="17" cy="5" r="1.8" fill="#fff" opacity="0.57"/>
<circle cx="100" cy="52" r="2.8" fill="#fff" opacity="0.46"/>
<circle cx="183" cy="99" r="0.8" fill="#fff" opacity="0.35"/>
<circle cx="266" cy="146" r="1.8" fill="#fff" opacity="0.24"/>
<circle cx="49" cy="193" r="2.8" fill="#fff" opacity="0.62"/>
<circle cx="132" cy="240" r="0.8" fill="#fff" opacity="0.51"/>
<circle cx="215" cy="17" r="1.8" fill="#fff" opacity="0.40"/>
<circle cx="298" cy="64" r="2.8" fill="#fff" opacity="0.29"/>
<circle cx="81" cy="111" r="0.8" fill="#fff" opacity="0.18"/>
<circle cx="164" cy="158" r="1.8" fill="#fff" opacity="0.57"/>
<circle cx="247" cy="205" r="2.8" fill="#fff" opacity="0.46"/>
<circle cx="30" cy="252" r="0.8" fill="#fff" opacity="0.35"/>
<circle cx="113" cy="29" r="1.8" fill="#fff" opacity="0.24"/>
  <g transform="translate(0 6)" opacity="0.95">
    <path d="M70 320 L70 160 L115 160 L115 95 L150 95 L150 320 Z M165 320 L165 125 L220 125 L220 320 Z" fill="#ffffff" opacity="0.12"/>
    <path d="M70 320 L70 160 L115 160 L115 95 L150 95 L150 320 Z M165 320 L165 125 L220 125 L220 320 Z" fill="none" stroke="#ffffff" stroke-width="3" opacity="0.42"/>
  </g>
  <circle cx="240" cy="78" r="42" fill="#fff" opacity="0.12"/>
  <path d="M-20 356 C65 320 110 372 182 338 C230 315 260 300 330 335 L330 450 L-20 450 Z" fill="#000" opacity="0.28"/>
  <rect width="300" height="450" fill="url(#shade)"/>
  <rect width="300" height="450" filter="url(#grain)" opacity="0.45"/>
  <text x="150" y="278" text-anchor="middle" font-family="Arial, sans-serif" font-size="10" font-weight="700" letter-spacing="2.5" fill="#ffffff" opacity="0.75">TOMOVERSO ORIGINAL</text>
  <text x="150" y="305" text-anchor="middle" font-family="Georgia, serif" font-size="24" font-weight="800" fill="#ffffff">O Garoto que</text>
<text x="150" y="331" text-anchor="middle" font-family="Georgia, serif" font-size="24" font-weight="800" fill="#ffffff">Vendia Finais</text>
<text x="150" y="357" text-anchor="middle" font-family="Georgia, serif" font-size="24" font-weight="800" fill="#ffffff">Felizes</text>
  <text x="150" y="420" text-anchor="middle" font-family="Arial, sans-serif" font-size="10" font-weight="700" letter-spacing="1.8" fill="#ffffff" opacity="0.72">FANTASIA URBANA</text>
</svg>