<?xml version="1.0" encoding="UTF-8"?>
<svg xmlns="http://www.w3.org/2000/svg" viewBox="0 0 300 450" width="600" height="900" role="img" aria-labelledby="title desc">
  <title id="title">O Garoto da Janela 17</title>
  <desc id="desc">Garota olhando pela janela chuvosa para prédio em frente com garoto brilhando na janela 17.</desc>
  <defs>
    <linearGradient id="bg" x1="0" y1="0" x2="1" y2="1">
      <stop offset="0%" stop-color="#172554"/>
      <stop offset="58%" stop-color="#60a5fa"/>
      <stop offset="100%" stop-color="#f9a8d4"/>
    </linearGradient>
    <radialGradient id="glow" cx="50%" cy="35%" r="60%">
      <stop offset="0%" stop-color="#ffffff" stop-opacity="0.42"/>
      <stop offset="100%" stop-color="#ffffff" stop-opacity="0"/>
    </radialGradient>
    <linearGradient id="shade" x1="0" y1="0" x2="0" y2="1">
      <stop offset="0%" stop-color="#000000" stop-opacity="0.05"/>
      <stop offset="55%" stop-color="#000000" stop-opacity="0.1"/>
      <stop offset="100%" stop-color="#000000" stop-opacity="0.88"/>
    </linearGradient>
    <filter id="grain" x="-20%" y="-20%" width="140%" height="140%">
      <feTurbulence type="fractalNoise" baseFrequency="0.85" numOctaves="3" stitchTiles="stitch"/>
      <feColorMatrix type="saturate" values="0"/>
      <feComponentTransfer><feFuncA type="table" tableValues="0 0.12"/></feComponentTransfer>
    </filter>
  </defs>
  <rect width="300" height="450" fill="url(#bg)"/>
  <rect width="300" height="450" fill="url(#glow)"/>
  <circle cx="199" cy="13" r="2.8" fill="#fff" opacity="0.29"/>
<circle cx="282" cy="60" r="0.8" fill="#fff" opacity="0.18"/>
<circle cx="65" cy="107" r="1.8" fill="#fff" opacity="0.57"/>
<circle cx="148" cy="154" r="2.8" fill="#fff" opacity="0.46"/>
<circle cx="231" cy="201" r="0.8" fill="#fff" opacity="0.35"/>
<circle cx="14" cy="248" r="1.8" fill="#fff" opacity="0.24"/>
<circle cx="97" cy="25" r="2.8" fill="#fff" opacity="0.62"/>
<circle cx="180" cy="72" r="0.8" fill="#fff" opacity="0.51"/>
<circle cx="263" cy="119" r="1.8" fill="#fff" opacity="0.40"/>
<circle cx="46" cy="166" r="2.8" fill="#fff" opacity="0.29"/>
<circle cx="129" cy="213" r="0.8" fill="#fff" opacity="0.18"/>
<circle cx="212" cy="260" r="1.8" fill="#fff" opacity="0.57"/>
<circle cx="295" cy="37" r="2.8" fill="#fff" opacity="0.46"/>
<circle cx="78" cy="84" r="0.8" fill="#fff" opacity="0.35"/>
<circle cx="161" cy="131" r="1.8" fill="#fff" opacity="0.24"/>
<circle cx="244" cy="178" r="2.8" fill="#fff" opacity="0.62"/>
<circle cx="27" cy="225" r="0.8" fill="#fff" opacity="0.51"/>
<circle cx="110" cy="2" r="1.8" fill="#fff" opacity="0.40"/>
<circle cx="193" cy="49" r="2.8" fill="#fff" opacity="0.29"/>
<circle cx="276" cy="96" r="0.8" fill="#fff" opacity="0.18"/>
<circle cx="59" cy="143" r="1.8" fill="#fff" opacity="0.57"/>
<circle cx="142" cy="190" r="2.8" fill="#fff" opacity="0.46"/>
<circle cx="225" cy="237" r="0.8" fill="#fff" opacity="0.35"/>
<circle cx="8" cy="14" r="1.8" fill="#fff" opacity="0.24"/>
<circle cx="91" cy="61" r="2.8" fill="#fff" opacity="0.62"/>
<circle cx="174" cy="108" r="0.8" fill="#fff" opacity="0.51"/>
<circle cx="257" cy="155" r="1.8" fill="#fff" opacity="0.40"/>
<circle cx="40" cy="202" r="2.8" fill="#fff" opacity="0.29"/>
<circle cx="123" cy="249" r="0.8" fill="#fff" opacity="0.18"/>
<circle cx="206" cy="26" r="1.8" fill="#fff" opacity="0.57"/>
<circle cx="289" cy="73" r="2.8" fill="#fff" opacity="0.46"/>
<circle cx="72" cy="120" r="0.8" fill="#fff" opacity="0.35"/>
<circle cx="155" cy="167" r="1.8" fill="#fff" opacity="0.24"/>
<circle cx="238" cy="214" r="2.8" fill="#fff" opacity="0.62"/>
  <g transform="translate(0 6)" opacity="0.95">
    <path d="M150 55 C198 55 232 86 232 130 C232 205 170 205 170 255 L130 255 C130 180 190 185 190 130 C190 105 174 90 150 90 C126 90 110 105 110 130 L70 130 C70 86 102 55 150 55 Z M128 295 L172 295 L172 340 L128 340 Z" fill="#ffffff" opacity="0.12"/>
    <path d="M150 55 C198 55 232 86 232 130 C232 205 170 205 170 255 L130 255 C130 180 190 185 190 130 C190 105 174 90 150 90 C126 90 110 105 110 130 L70 130 C70 86 102 55 150 55 Z M128 295 L172 295 L172 340 L128 340 Z" fill="none" stroke="#ffffff" stroke-width="3" opacity="0.42"/>
  </g>
  <circle cx="240" cy="78" r="42" fill="#fff" opacity="0.12"/>
  <path d="M-20 356 C65 320 110 372 182 338 C230 315 260 300 330 335 L330 450 L-20 450 Z" fill="#000" opacity="0.28"/>
  <rect width="300" height="450" fill="url(#shade)"/>
  <rect width="300" height="450" filter="url(#grain)" opacity="0.45"/>
  <text x="150" y="278" text-anchor="middle" font-family="Arial, sans-serif" font-size="10" font-weight="700" letter-spacing="2.5" fill="#ffffff" opacity="0.75">TOMOVERSO ORIGINAL</text>
  <text x="150" y="305" text-anchor="middle" font-family="Georgia, serif" font-size="24" font-weight="800" fill="#ffffff">O Garoto da Janela</text>
<text x="150" y="331" text-anchor="middle" font-family="Georgia, serif" font-size="24" font-weight="800" fill="#ffffff">17</text>
  <text x="150" y="420" text-anchor="middle" font-family="Arial, sans-serif" font-size="10" font-weight="700" letter-spacing="1.8" fill="#ffffff" opacity="0.72">MISTÉRIO</text>
</svg>