<?xml version="1.0" encoding="UTF-8"?>
<svg xmlns="http://www.w3.org/2000/svg" viewBox="0 0 300 450" width="600" height="900" role="img" aria-labelledby="title desc">
  <title id="title">Os Mortos Também Dão Match</title>
  <desc id="desc">Garota com celular mostrando match enquanto fantasma fofo aparece atrás dela em cafeteria.</desc>
  <defs>
    <linearGradient id="bg" x1="0" y1="0" x2="1" y2="1">
      <stop offset="0%" stop-color="#1f2937"/>
      <stop offset="58%" stop-color="#f97316"/>
      <stop offset="100%" stop-color="#fde68a"/>
    </linearGradient>
    <radialGradient id="glow" cx="50%" cy="35%" r="60%">
      <stop offset="0%" stop-color="#ffffff" stop-opacity="0.42"/>
      <stop offset="100%" stop-color="#ffffff" stop-opacity="0"/>
    </radialGradient>
    <linearGradient id="shade" x1="0" y1="0" x2="0" y2="1">
      <stop offset="0%" stop-color="#000000" stop-opacity="0.05"/>
      <stop offset="55%" stop-color="#000000" stop-opacity="0.1"/>
      <stop offset="100%" stop-color="#000000" stop-opacity="0.88"/>
    </linearGradient>
    <filter id="grain" x="-20%" y="-20%" width="140%" height="140%">
      <feTurbulence type="fractalNoise" baseFrequency="0.85" numOctaves="3" stitchTiles="stitch"/>
      <feColorMatrix type="saturate" values="0"/>
      <feComponentTransfer><feFuncA type="table" tableValues="0 0.12"/></feComponentTransfer>
    </filter>
  </defs>
  <rect width="300" height="450" fill="url(#bg)"/>
  <rect width="300" height="450" fill="url(#glow)"/>
  <circle cx="233" cy="71" r="1.8" fill="#fff" opacity="0.40"/>
<circle cx="16" cy="118" r="2.8" fill="#fff" opacity="0.29"/>
<circle cx="99" cy="165" r="0.8" fill="#fff" opacity="0.18"/>
<circle cx="182" cy="212" r="1.8" fill="#fff" opacity="0.57"/>
<circle cx="265" cy="259" r="2.8" fill="#fff" opacity="0.46"/>
<circle cx="48" cy="36" r="0.8" fill="#fff" opacity="0.35"/>
<circle cx="131" cy="83" r="1.8" fill="#fff" opacity="0.24"/>
<circle cx="214" cy="130" r="2.8" fill="#fff" opacity="0.62"/>
<circle cx="297" cy="177" r="0.8" fill="#fff" opacity="0.51"/>
<circle cx="80" cy="224" r="1.8" fill="#fff" opacity="0.40"/>
<circle cx="163" cy="1" r="2.8" fill="#fff" opacity="0.29"/>
<circle cx="246" cy="48" r="0.8" fill="#fff" opacity="0.18"/>
<circle cx="29" cy="95" r="1.8" fill="#fff" opacity="0.57"/>
<circle cx="112" cy="142" r="2.8" fill="#fff" opacity="0.46"/>
<circle cx="195" cy="189" r="0.8" fill="#fff" opacity="0.35"/>
<circle cx="278" cy="236" r="1.8" fill="#fff" opacity="0.24"/>
<circle cx="61" cy="13" r="2.8" fill="#fff" opacity="0.62"/>
<circle cx="144" cy="60" r="0.8" fill="#fff" opacity="0.51"/>
<circle cx="227" cy="107" r="1.8" fill="#fff" opacity="0.40"/>
<circle cx="10" cy="154" r="2.8" fill="#fff" opacity="0.29"/>
<circle cx="93" cy="201" r="0.8" fill="#fff" opacity="0.18"/>
<circle cx="176" cy="248" r="1.8" fill="#fff" opacity="0.57"/>
<circle cx="259" cy="25" r="2.8" fill="#fff" opacity="0.46"/>
<circle cx="42" cy="72" r="0.8" fill="#fff" opacity="0.35"/>
<circle cx="125" cy="119" r="1.8" fill="#fff" opacity="0.24"/>
<circle cx="208" cy="166" r="2.8" fill="#fff" opacity="0.62"/>
<circle cx="291" cy="213" r="0.8" fill="#fff" opacity="0.51"/>
<circle cx="74" cy="260" r="1.8" fill="#fff" opacity="0.40"/>
<circle cx="157" cy="37" r="2.8" fill="#fff" opacity="0.29"/>
<circle cx="240" cy="84" r="0.8" fill="#fff" opacity="0.18"/>
<circle cx="23" cy="131" r="1.8" fill="#fff" opacity="0.57"/>
<circle cx="106" cy="178" r="2.8" fill="#fff" opacity="0.46"/>
<circle cx="189" cy="225" r="0.8" fill="#fff" opacity="0.35"/>
<circle cx="272" cy="2" r="1.8" fill="#fff" opacity="0.24"/>
  <g transform="translate(0 6)" opacity="0.95">
    <path d="M50 180 Q150 70 250 180 Q150 330 50 180 Z" fill="#ffffff" opacity="0.12"/>
    <path d="M50 180 Q150 70 250 180 Q150 330 50 180 Z" fill="none" stroke="#ffffff" stroke-width="3" opacity="0.42"/>
  </g>
  <circle cx="240" cy="78" r="42" fill="#fff" opacity="0.12"/>
  <path d="M-20 356 C65 320 110 372 182 338 C230 315 260 300 330 335 L330 450 L-20 450 Z" fill="#000" opacity="0.28"/>
  <rect width="300" height="450" fill="url(#shade)"/>
  <rect width="300" height="450" filter="url(#grain)" opacity="0.45"/>
  <text x="150" y="278" text-anchor="middle" font-family="Arial, sans-serif" font-size="10" font-weight="700" letter-spacing="2.5" fill="#ffffff" opacity="0.75">TOMOVERSO ORIGINAL</text>
  <text x="150" y="305" text-anchor="middle" font-family="Georgia, serif" font-size="24" font-weight="800" fill="#ffffff">Os Mortos Também</text>
<text x="150" y="331" text-anchor="middle" font-family="Georgia, serif" font-size="24" font-weight="800" fill="#ffffff">Dão Match</text>
  <text x="150" y="420" text-anchor="middle" font-family="Arial, sans-serif" font-size="10" font-weight="700" letter-spacing="1.8" fill="#ffffff" opacity="0.72">COMÉDIA ROMÂNTICA</text>
</svg>