<?xml version="1.0" encoding="UTF-8"?>
<svg xmlns="http://www.w3.org/2000/svg" viewBox="0 0 300 450" width="600" height="900" role="img" aria-labelledby="title desc">
  <title id="title">Playlist para Fugir de Você</title>
  <desc id="desc">Casal separado por fones de ouvido, palco escolar vazio e folhas de música rasgadas.</desc>
  <defs>
    <linearGradient id="bg" x1="0" y1="0" x2="1" y2="1">
      <stop offset="0%" stop-color="#1f2937"/>
      <stop offset="58%" stop-color="#f97316"/>
      <stop offset="100%" stop-color="#fde68a"/>
    </linearGradient>
    <radialGradient id="glow" cx="50%" cy="35%" r="60%">
      <stop offset="0%" stop-color="#ffffff" stop-opacity="0.42"/>
      <stop offset="100%" stop-color="#ffffff" stop-opacity="0"/>
    </radialGradient>
    <linearGradient id="shade" x1="0" y1="0" x2="0" y2="1">
      <stop offset="0%" stop-color="#000000" stop-opacity="0.05"/>
      <stop offset="55%" stop-color="#000000" stop-opacity="0.1"/>
      <stop offset="100%" stop-color="#000000" stop-opacity="0.88"/>
    </linearGradient>
    <filter id="grain" x="-20%" y="-20%" width="140%" height="140%">
      <feTurbulence type="fractalNoise" baseFrequency="0.85" numOctaves="3" stitchTiles="stitch"/>
      <feColorMatrix type="saturate" values="0"/>
      <feComponentTransfer><feFuncA type="table" tableValues="0 0.12"/></feComponentTransfer>
    </filter>
  </defs>
  <rect width="300" height="450" fill="url(#bg)"/>
  <rect width="300" height="450" fill="url(#glow)"/>
  <circle cx="153" cy="261" r="0.8" fill="#fff" opacity="0.18"/>
<circle cx="236" cy="38" r="1.8" fill="#fff" opacity="0.57"/>
<circle cx="19" cy="85" r="2.8" fill="#fff" opacity="0.46"/>
<circle cx="102" cy="132" r="0.8" fill="#fff" opacity="0.35"/>
<circle cx="185" cy="179" r="1.8" fill="#fff" opacity="0.24"/>
<circle cx="268" cy="226" r="2.8" fill="#fff" opacity="0.62"/>
<circle cx="51" cy="3" r="0.8" fill="#fff" opacity="0.51"/>
<circle cx="134" cy="50" r="1.8" fill="#fff" opacity="0.40"/>
<circle cx="217" cy="97" r="2.8" fill="#fff" opacity="0.29"/>
<circle cx="0" cy="144" r="0.8" fill="#fff" opacity="0.18"/>
<circle cx="83" cy="191" r="1.8" fill="#fff" opacity="0.57"/>
<circle cx="166" cy="238" r="2.8" fill="#fff" opacity="0.46"/>
<circle cx="249" cy="15" r="0.8" fill="#fff" opacity="0.35"/>
<circle cx="32" cy="62" r="1.8" fill="#fff" opacity="0.24"/>
<circle cx="115" cy="109" r="2.8" fill="#fff" opacity="0.62"/>
<circle cx="198" cy="156" r="0.8" fill="#fff" opacity="0.51"/>
<circle cx="281" cy="203" r="1.8" fill="#fff" opacity="0.40"/>
<circle cx="64" cy="250" r="2.8" fill="#fff" opacity="0.29"/>
<circle cx="147" cy="27" r="0.8" fill="#fff" opacity="0.18"/>
<circle cx="230" cy="74" r="1.8" fill="#fff" opacity="0.57"/>
<circle cx="13" cy="121" r="2.8" fill="#fff" opacity="0.46"/>
<circle cx="96" cy="168" r="0.8" fill="#fff" opacity="0.35"/>
<circle cx="179" cy="215" r="1.8" fill="#fff" opacity="0.24"/>
<circle cx="262" cy="262" r="2.8" fill="#fff" opacity="0.62"/>
<circle cx="45" cy="39" r="0.8" fill="#fff" opacity="0.51"/>
<circle cx="128" cy="86" r="1.8" fill="#fff" opacity="0.40"/>
<circle cx="211" cy="133" r="2.8" fill="#fff" opacity="0.29"/>
<circle cx="294" cy="180" r="0.8" fill="#fff" opacity="0.18"/>
<circle cx="77" cy="227" r="1.8" fill="#fff" opacity="0.57"/>
<circle cx="160" cy="4" r="2.8" fill="#fff" opacity="0.46"/>
<circle cx="243" cy="51" r="0.8" fill="#fff" opacity="0.35"/>
<circle cx="26" cy="98" r="1.8" fill="#fff" opacity="0.24"/>
<circle cx="109" cy="145" r="2.8" fill="#fff" opacity="0.62"/>
<circle cx="192" cy="192" r="0.8" fill="#fff" opacity="0.51"/>
  <g transform="translate(0 6)" opacity="0.95">
    <path d="M150 45 L172 130 L255 145 L185 190 L205 275 L150 225 L95 275 L115 190 L45 145 L128 130 Z" fill="#ffffff" opacity="0.12"/>
    <path d="M150 45 L172 130 L255 145 L185 190 L205 275 L150 225 L95 275 L115 190 L45 145 L128 130 Z" fill="none" stroke="#ffffff" stroke-width="3" opacity="0.42"/>
  </g>
  <circle cx="240" cy="78" r="42" fill="#fff" opacity="0.12"/>
  <path d="M-20 356 C65 320 110 372 182 338 C230 315 260 300 330 335 L330 450 L-20 450 Z" fill="#000" opacity="0.28"/>
  <rect width="300" height="450" fill="url(#shade)"/>
  <rect width="300" height="450" filter="url(#grain)" opacity="0.45"/>
  <text x="150" y="278" text-anchor="middle" font-family="Arial, sans-serif" font-size="10" font-weight="700" letter-spacing="2.5" fill="#ffffff" opacity="0.75">TOMOVERSO ORIGINAL</text>
  <text x="150" y="305" text-anchor="middle" font-family="Georgia, serif" font-size="24" font-weight="800" fill="#ffffff">Playlist para</text>
<text x="150" y="331" text-anchor="middle" font-family="Georgia, serif" font-size="24" font-weight="800" fill="#ffffff">Fugir de Você</text>
  <text x="150" y="420" text-anchor="middle" font-family="Arial, sans-serif" font-size="10" font-weight="700" letter-spacing="1.8" fill="#ffffff" opacity="0.72">ROMANCE DRAMÁTICO</text>
</svg>