<?xml version="1.0" encoding="UTF-8"?>
<svg xmlns="http://www.w3.org/2000/svg" viewBox="0 0 300 450" width="600" height="900" role="img" aria-labelledby="title desc">
  <title id="title">Rainha dos Likes Partidos</title>
  <desc id="desc">Garota influencer cercada por telas rachadas, likes flutuantes e expressão vulnerável.</desc>
  <defs>
    <linearGradient id="bg" x1="0" y1="0" x2="1" y2="1">
      <stop offset="0%" stop-color="#064e3b"/>
      <stop offset="58%" stop-color="#10b981"/>
      <stop offset="100%" stop-color="#fef3c7"/>
    </linearGradient>
    <radialGradient id="glow" cx="50%" cy="35%" r="60%">
      <stop offset="0%" stop-color="#ffffff" stop-opacity="0.42"/>
      <stop offset="100%" stop-color="#ffffff" stop-opacity="0"/>
    </radialGradient>
    <linearGradient id="shade" x1="0" y1="0" x2="0" y2="1">
      <stop offset="0%" stop-color="#000000" stop-opacity="0.05"/>
      <stop offset="55%" stop-color="#000000" stop-opacity="0.1"/>
      <stop offset="100%" stop-color="#000000" stop-opacity="0.88"/>
    </linearGradient>
    <filter id="grain" x="-20%" y="-20%" width="140%" height="140%">
      <feTurbulence type="fractalNoise" baseFrequency="0.85" numOctaves="3" stitchTiles="stitch"/>
      <feColorMatrix type="saturate" values="0"/>
      <feComponentTransfer><feFuncA type="table" tableValues="0 0.12"/></feComponentTransfer>
    </filter>
  </defs>
  <rect width="300" height="450" fill="url(#bg)"/>
  <rect width="300" height="450" fill="url(#glow)"/>
  <circle cx="255" cy="165" r="0.8" fill="#fff" opacity="0.51"/>
<circle cx="38" cy="212" r="1.8" fill="#fff" opacity="0.40"/>
<circle cx="121" cy="259" r="2.8" fill="#fff" opacity="0.29"/>
<circle cx="204" cy="36" r="0.8" fill="#fff" opacity="0.18"/>
<circle cx="287" cy="83" r="1.8" fill="#fff" opacity="0.57"/>
<circle cx="70" cy="130" r="2.8" fill="#fff" opacity="0.46"/>
<circle cx="153" cy="177" r="0.8" fill="#fff" opacity="0.35"/>
<circle cx="236" cy="224" r="1.8" fill="#fff" opacity="0.24"/>
<circle cx="19" cy="1" r="2.8" fill="#fff" opacity="0.62"/>
<circle cx="102" cy="48" r="0.8" fill="#fff" opacity="0.51"/>
<circle cx="185" cy="95" r="1.8" fill="#fff" opacity="0.40"/>
<circle cx="268" cy="142" r="2.8" fill="#fff" opacity="0.29"/>
<circle cx="51" cy="189" r="0.8" fill="#fff" opacity="0.18"/>
<circle cx="134" cy="236" r="1.8" fill="#fff" opacity="0.57"/>
<circle cx="217" cy="13" r="2.8" fill="#fff" opacity="0.46"/>
<circle cx="0" cy="60" r="0.8" fill="#fff" opacity="0.35"/>
<circle cx="83" cy="107" r="1.8" fill="#fff" opacity="0.24"/>
<circle cx="166" cy="154" r="2.8" fill="#fff" opacity="0.62"/>
<circle cx="249" cy="201" r="0.8" fill="#fff" opacity="0.51"/>
<circle cx="32" cy="248" r="1.8" fill="#fff" opacity="0.40"/>
<circle cx="115" cy="25" r="2.8" fill="#fff" opacity="0.29"/>
<circle cx="198" cy="72" r="0.8" fill="#fff" opacity="0.18"/>
<circle cx="281" cy="119" r="1.8" fill="#fff" opacity="0.57"/>
<circle cx="64" cy="166" r="2.8" fill="#fff" opacity="0.46"/>
<circle cx="147" cy="213" r="0.8" fill="#fff" opacity="0.35"/>
<circle cx="230" cy="260" r="1.8" fill="#fff" opacity="0.24"/>
<circle cx="13" cy="37" r="2.8" fill="#fff" opacity="0.62"/>
<circle cx="96" cy="84" r="0.8" fill="#fff" opacity="0.51"/>
<circle cx="179" cy="131" r="1.8" fill="#fff" opacity="0.40"/>
<circle cx="262" cy="178" r="2.8" fill="#fff" opacity="0.29"/>
<circle cx="45" cy="225" r="0.8" fill="#fff" opacity="0.18"/>
<circle cx="128" cy="2" r="1.8" fill="#fff" opacity="0.57"/>
<circle cx="211" cy="49" r="2.8" fill="#fff" opacity="0.46"/>
<circle cx="294" cy="96" r="0.8" fill="#fff" opacity="0.35"/>
  <g transform="translate(0 6)" opacity="0.95">
    <path d="M80 70 C150 25 220 70 220 155 C220 250 150 330 150 330 C150 330 80 250 80 155 C80 120 95 95 115 80 Z" fill="#ffffff" opacity="0.12"/>
    <path d="M80 70 C150 25 220 70 220 155 C220 250 150 330 150 330 C150 330 80 250 80 155 C80 120 95 95 115 80 Z" fill="none" stroke="#ffffff" stroke-width="3" opacity="0.42"/>
  </g>
  <circle cx="240" cy="78" r="42" fill="#fff" opacity="0.12"/>
  <path d="M-20 356 C65 320 110 372 182 338 C230 315 260 300 330 335 L330 450 L-20 450 Z" fill="#000" opacity="0.28"/>
  <rect width="300" height="450" fill="url(#shade)"/>
  <rect width="300" height="450" filter="url(#grain)" opacity="0.45"/>
  <text x="150" y="278" text-anchor="middle" font-family="Arial, sans-serif" font-size="10" font-weight="700" letter-spacing="2.5" fill="#ffffff" opacity="0.75">TOMOVERSO ORIGINAL</text>
  <text x="150" y="305" text-anchor="middle" font-family="Georgia, serif" font-size="24" font-weight="800" fill="#ffffff">Rainha dos Likes</text>
<text x="150" y="331" text-anchor="middle" font-family="Georgia, serif" font-size="24" font-weight="800" fill="#ffffff">Partidos</text>
  <text x="150" y="420" text-anchor="middle" font-family="Arial, sans-serif" font-size="10" font-weight="700" letter-spacing="1.8" fill="#ffffff" opacity="0.72">DRAMA</text>
</svg>