<?xml version="1.0" encoding="UTF-8"?>
<svg xmlns="http://www.w3.org/2000/svg" viewBox="0 0 300 450" width="600" height="900" role="img" aria-labelledby="title desc">
  <title id="title">Sombras no Clube de Astronomia</title>
  <desc id="desc">Alunos em observatório escolar vendo sombra cósmica sair do telescópio sob céu estrelado.</desc>
  <defs>
    <linearGradient id="bg" x1="0" y1="0" x2="1" y2="1">
      <stop offset="0%" stop-color="#172554"/>
      <stop offset="58%" stop-color="#60a5fa"/>
      <stop offset="100%" stop-color="#f9a8d4"/>
    </linearGradient>
    <radialGradient id="glow" cx="50%" cy="35%" r="60%">
      <stop offset="0%" stop-color="#ffffff" stop-opacity="0.42"/>
      <stop offset="100%" stop-color="#ffffff" stop-opacity="0"/>
    </radialGradient>
    <linearGradient id="shade" x1="0" y1="0" x2="0" y2="1">
      <stop offset="0%" stop-color="#000000" stop-opacity="0.05"/>
      <stop offset="55%" stop-color="#000000" stop-opacity="0.1"/>
      <stop offset="100%" stop-color="#000000" stop-opacity="0.88"/>
    </linearGradient>
    <filter id="grain" x="-20%" y="-20%" width="140%" height="140%">
      <feTurbulence type="fractalNoise" baseFrequency="0.85" numOctaves="3" stitchTiles="stitch"/>
      <feColorMatrix type="saturate" values="0"/>
      <feComponentTransfer><feFuncA type="table" tableValues="0 0.12"/></feComponentTransfer>
    </filter>
  </defs>
  <rect width="300" height="450" fill="url(#bg)"/>
  <rect width="300" height="450" fill="url(#glow)"/>
  <circle cx="29" cy="263" r="1.8" fill="#fff" opacity="0.24"/>
<circle cx="112" cy="40" r="2.8" fill="#fff" opacity="0.62"/>
<circle cx="195" cy="87" r="0.8" fill="#fff" opacity="0.51"/>
<circle cx="278" cy="134" r="1.8" fill="#fff" opacity="0.40"/>
<circle cx="61" cy="181" r="2.8" fill="#fff" opacity="0.29"/>
<circle cx="144" cy="228" r="0.8" fill="#fff" opacity="0.18"/>
<circle cx="227" cy="5" r="1.8" fill="#fff" opacity="0.57"/>
<circle cx="10" cy="52" r="2.8" fill="#fff" opacity="0.46"/>
<circle cx="93" cy="99" r="0.8" fill="#fff" opacity="0.35"/>
<circle cx="176" cy="146" r="1.8" fill="#fff" opacity="0.24"/>
<circle cx="259" cy="193" r="2.8" fill="#fff" opacity="0.62"/>
<circle cx="42" cy="240" r="0.8" fill="#fff" opacity="0.51"/>
<circle cx="125" cy="17" r="1.8" fill="#fff" opacity="0.40"/>
<circle cx="208" cy="64" r="2.8" fill="#fff" opacity="0.29"/>
<circle cx="291" cy="111" r="0.8" fill="#fff" opacity="0.18"/>
<circle cx="74" cy="158" r="1.8" fill="#fff" opacity="0.57"/>
<circle cx="157" cy="205" r="2.8" fill="#fff" opacity="0.46"/>
<circle cx="240" cy="252" r="0.8" fill="#fff" opacity="0.35"/>
<circle cx="23" cy="29" r="1.8" fill="#fff" opacity="0.24"/>
<circle cx="106" cy="76" r="2.8" fill="#fff" opacity="0.62"/>
<circle cx="189" cy="123" r="0.8" fill="#fff" opacity="0.51"/>
<circle cx="272" cy="170" r="1.8" fill="#fff" opacity="0.40"/>
<circle cx="55" cy="217" r="2.8" fill="#fff" opacity="0.29"/>
<circle cx="138" cy="264" r="0.8" fill="#fff" opacity="0.18"/>
<circle cx="221" cy="41" r="1.8" fill="#fff" opacity="0.57"/>
<circle cx="4" cy="88" r="2.8" fill="#fff" opacity="0.46"/>
<circle cx="87" cy="135" r="0.8" fill="#fff" opacity="0.35"/>
<circle cx="170" cy="182" r="1.8" fill="#fff" opacity="0.24"/>
<circle cx="253" cy="229" r="2.8" fill="#fff" opacity="0.62"/>
<circle cx="36" cy="6" r="0.8" fill="#fff" opacity="0.51"/>
<circle cx="119" cy="53" r="1.8" fill="#fff" opacity="0.40"/>
<circle cx="202" cy="100" r="2.8" fill="#fff" opacity="0.29"/>
<circle cx="285" cy="147" r="0.8" fill="#fff" opacity="0.18"/>
<circle cx="68" cy="194" r="1.8" fill="#fff" opacity="0.57"/>
  <g transform="translate(0 6)" opacity="0.95">
    <path d="M65 300 C85 120 215 120 235 300 C205 255 175 335 150 275 C125 335 95 255 65 300 Z" fill="#ffffff" opacity="0.12"/>
    <path d="M65 300 C85 120 215 120 235 300 C205 255 175 335 150 275 C125 335 95 255 65 300 Z" fill="none" stroke="#ffffff" stroke-width="3" opacity="0.42"/>
  </g>
  <circle cx="240" cy="78" r="42" fill="#fff" opacity="0.12"/>
  <path d="M-20 356 C65 320 110 372 182 338 C230 315 260 300 330 335 L330 450 L-20 450 Z" fill="#000" opacity="0.28"/>
  <rect width="300" height="450" fill="url(#shade)"/>
  <rect width="300" height="450" filter="url(#grain)" opacity="0.45"/>
  <text x="150" y="278" text-anchor="middle" font-family="Arial, sans-serif" font-size="10" font-weight="700" letter-spacing="2.5" fill="#ffffff" opacity="0.75">TOMOVERSO ORIGINAL</text>
  <text x="150" y="305" text-anchor="middle" font-family="Georgia, serif" font-size="24" font-weight="800" fill="#ffffff">Sombras no Clube</text>
<text x="150" y="331" text-anchor="middle" font-family="Georgia, serif" font-size="24" font-weight="800" fill="#ffffff">de Astronomia</text>
  <text x="150" y="420" text-anchor="middle" font-family="Arial, sans-serif" font-size="10" font-weight="700" letter-spacing="1.8" fill="#ffffff" opacity="0.72">SUSPENSE</text>
</svg>