<?xml version="1.0" encoding="UTF-8"?>
<svg xmlns="http://www.w3.org/2000/svg" viewBox="0 0 300 450" width="600" height="900" role="img" aria-labelledby="title desc">
  <title id="title">Sussurros no Reino de Cinza</title>
  <desc id="desc">Princesa muda em castelo cinzento cercada por fantasmas translúcidos e coroa quebrada.</desc>
  <defs>
    <linearGradient id="bg" x1="0" y1="0" x2="1" y2="1">
      <stop offset="0%" stop-color="#312e81"/>
      <stop offset="58%" stop-color="#a855f7"/>
      <stop offset="100%" stop-color="#22d3ee"/>
    </linearGradient>
    <radialGradient id="glow" cx="50%" cy="35%" r="60%">
      <stop offset="0%" stop-color="#ffffff" stop-opacity="0.42"/>
      <stop offset="100%" stop-color="#ffffff" stop-opacity="0"/>
    </radialGradient>
    <linearGradient id="shade" x1="0" y1="0" x2="0" y2="1">
      <stop offset="0%" stop-color="#000000" stop-opacity="0.05"/>
      <stop offset="55%" stop-color="#000000" stop-opacity="0.1"/>
      <stop offset="100%" stop-color="#000000" stop-opacity="0.88"/>
    </linearGradient>
    <filter id="grain" x="-20%" y="-20%" width="140%" height="140%">
      <feTurbulence type="fractalNoise" baseFrequency="0.85" numOctaves="3" stitchTiles="stitch"/>
      <feColorMatrix type="saturate" values="0"/>
      <feComponentTransfer><feFuncA type="table" tableValues="0 0.12"/></feComponentTransfer>
    </filter>
  </defs>
  <rect width="300" height="450" fill="url(#bg)"/>
  <rect width="300" height="450" fill="url(#glow)"/>
  <circle cx="136" cy="232" r="2.8" fill="#fff" opacity="0.62"/>
<circle cx="219" cy="9" r="0.8" fill="#fff" opacity="0.51"/>
<circle cx="2" cy="56" r="1.8" fill="#fff" opacity="0.40"/>
<circle cx="85" cy="103" r="2.8" fill="#fff" opacity="0.29"/>
<circle cx="168" cy="150" r="0.8" fill="#fff" opacity="0.18"/>
<circle cx="251" cy="197" r="1.8" fill="#fff" opacity="0.57"/>
<circle cx="34" cy="244" r="2.8" fill="#fff" opacity="0.46"/>
<circle cx="117" cy="21" r="0.8" fill="#fff" opacity="0.35"/>
<circle cx="200" cy="68" r="1.8" fill="#fff" opacity="0.24"/>
<circle cx="283" cy="115" r="2.8" fill="#fff" opacity="0.62"/>
<circle cx="66" cy="162" r="0.8" fill="#fff" opacity="0.51"/>
<circle cx="149" cy="209" r="1.8" fill="#fff" opacity="0.40"/>
<circle cx="232" cy="256" r="2.8" fill="#fff" opacity="0.29"/>
<circle cx="15" cy="33" r="0.8" fill="#fff" opacity="0.18"/>
<circle cx="98" cy="80" r="1.8" fill="#fff" opacity="0.57"/>
<circle cx="181" cy="127" r="2.8" fill="#fff" opacity="0.46"/>
<circle cx="264" cy="174" r="0.8" fill="#fff" opacity="0.35"/>
<circle cx="47" cy="221" r="1.8" fill="#fff" opacity="0.24"/>
<circle cx="130" cy="268" r="2.8" fill="#fff" opacity="0.62"/>
<circle cx="213" cy="45" r="0.8" fill="#fff" opacity="0.51"/>
<circle cx="296" cy="92" r="1.8" fill="#fff" opacity="0.40"/>
<circle cx="79" cy="139" r="2.8" fill="#fff" opacity="0.29"/>
<circle cx="162" cy="186" r="0.8" fill="#fff" opacity="0.18"/>
<circle cx="245" cy="233" r="1.8" fill="#fff" opacity="0.57"/>
<circle cx="28" cy="10" r="2.8" fill="#fff" opacity="0.46"/>
<circle cx="111" cy="57" r="0.8" fill="#fff" opacity="0.35"/>
<circle cx="194" cy="104" r="1.8" fill="#fff" opacity="0.24"/>
<circle cx="277" cy="151" r="2.8" fill="#fff" opacity="0.62"/>
<circle cx="60" cy="198" r="0.8" fill="#fff" opacity="0.51"/>
<circle cx="143" cy="245" r="1.8" fill="#fff" opacity="0.40"/>
<circle cx="226" cy="22" r="2.8" fill="#fff" opacity="0.29"/>
<circle cx="9" cy="69" r="0.8" fill="#fff" opacity="0.18"/>
<circle cx="92" cy="116" r="1.8" fill="#fff" opacity="0.57"/>
<circle cx="175" cy="163" r="2.8" fill="#fff" opacity="0.46"/>
  <g transform="translate(0 6)" opacity="0.95">
    <path d="M150 38 L190 140 L285 155 L215 220 L235 335 L150 270 L65 335 L85 220 L15 155 L110 140 Z" fill="#ffffff" opacity="0.12"/>
    <path d="M150 38 L190 140 L285 155 L215 220 L235 335 L150 270 L65 335 L85 220 L15 155 L110 140 Z" fill="none" stroke="#ffffff" stroke-width="3" opacity="0.42"/>
  </g>
  <circle cx="240" cy="78" r="42" fill="#fff" opacity="0.12"/>
  <path d="M-20 356 C65 320 110 372 182 338 C230 315 260 300 330 335 L330 450 L-20 450 Z" fill="#000" opacity="0.28"/>
  <rect width="300" height="450" fill="url(#shade)"/>
  <rect width="300" height="450" filter="url(#grain)" opacity="0.45"/>
  <text x="150" y="278" text-anchor="middle" font-family="Arial, sans-serif" font-size="10" font-weight="700" letter-spacing="2.5" fill="#ffffff" opacity="0.75">TOMOVERSO ORIGINAL</text>
  <text x="150" y="305" text-anchor="middle" font-family="Georgia, serif" font-size="24" font-weight="800" fill="#ffffff">Sussurros no Reino</text>
<text x="150" y="331" text-anchor="middle" font-family="Georgia, serif" font-size="24" font-weight="800" fill="#ffffff">de Cinza</text>
  <text x="150" y="420" text-anchor="middle" font-family="Arial, sans-serif" font-size="10" font-weight="700" letter-spacing="1.8" fill="#ffffff" opacity="0.72">FANTASIA SOMBRIA</text>
</svg>