<?xml version="1.0" encoding="UTF-8"?>
<svg xmlns="http://www.w3.org/2000/svg" viewBox="0 0 300 450" width="600" height="900" role="img" aria-labelledby="title desc">
  <title id="title">Zero Vida Extra</title>
  <desc id="desc">Streamer com visor VR e espada holográfica diante de arena digital quebrando em pixels.</desc>
  <defs>
    <linearGradient id="bg" x1="0" y1="0" x2="1" y2="1">
      <stop offset="0%" stop-color="#1f2937"/>
      <stop offset="58%" stop-color="#f97316"/>
      <stop offset="100%" stop-color="#fde68a"/>
    </linearGradient>
    <radialGradient id="glow" cx="50%" cy="35%" r="60%">
      <stop offset="0%" stop-color="#ffffff" stop-opacity="0.42"/>
      <stop offset="100%" stop-color="#ffffff" stop-opacity="0"/>
    </radialGradient>
    <linearGradient id="shade" x1="0" y1="0" x2="0" y2="1">
      <stop offset="0%" stop-color="#000000" stop-opacity="0.05"/>
      <stop offset="55%" stop-color="#000000" stop-opacity="0.1"/>
      <stop offset="100%" stop-color="#000000" stop-opacity="0.88"/>
    </linearGradient>
    <filter id="grain" x="-20%" y="-20%" width="140%" height="140%">
      <feTurbulence type="fractalNoise" baseFrequency="0.85" numOctaves="3" stitchTiles="stitch"/>
      <feColorMatrix type="saturate" values="0"/>
      <feComponentTransfer><feFuncA type="table" tableValues="0 0.12"/></feComponentTransfer>
    </filter>
  </defs>
  <rect width="300" height="450" fill="url(#bg)"/>
  <rect width="300" height="450" fill="url(#glow)"/>
  <circle cx="23" cy="11" r="1.8" fill="#fff" opacity="0.24"/>
<circle cx="106" cy="58" r="2.8" fill="#fff" opacity="0.62"/>
<circle cx="189" cy="105" r="0.8" fill="#fff" opacity="0.51"/>
<circle cx="272" cy="152" r="1.8" fill="#fff" opacity="0.40"/>
<circle cx="55" cy="199" r="2.8" fill="#fff" opacity="0.29"/>
<circle cx="138" cy="246" r="0.8" fill="#fff" opacity="0.18"/>
<circle cx="221" cy="23" r="1.8" fill="#fff" opacity="0.57"/>
<circle cx="4" cy="70" r="2.8" fill="#fff" opacity="0.46"/>
<circle cx="87" cy="117" r="0.8" fill="#fff" opacity="0.35"/>
<circle cx="170" cy="164" r="1.8" fill="#fff" opacity="0.24"/>
<circle cx="253" cy="211" r="2.8" fill="#fff" opacity="0.62"/>
<circle cx="36" cy="258" r="0.8" fill="#fff" opacity="0.51"/>
<circle cx="119" cy="35" r="1.8" fill="#fff" opacity="0.40"/>
<circle cx="202" cy="82" r="2.8" fill="#fff" opacity="0.29"/>
<circle cx="285" cy="129" r="0.8" fill="#fff" opacity="0.18"/>
<circle cx="68" cy="176" r="1.8" fill="#fff" opacity="0.57"/>
<circle cx="151" cy="223" r="2.8" fill="#fff" opacity="0.46"/>
<circle cx="234" cy="0" r="0.8" fill="#fff" opacity="0.35"/>
<circle cx="17" cy="47" r="1.8" fill="#fff" opacity="0.24"/>
<circle cx="100" cy="94" r="2.8" fill="#fff" opacity="0.62"/>
<circle cx="183" cy="141" r="0.8" fill="#fff" opacity="0.51"/>
<circle cx="266" cy="188" r="1.8" fill="#fff" opacity="0.40"/>
<circle cx="49" cy="235" r="2.8" fill="#fff" opacity="0.29"/>
<circle cx="132" cy="12" r="0.8" fill="#fff" opacity="0.18"/>
<circle cx="215" cy="59" r="1.8" fill="#fff" opacity="0.57"/>
<circle cx="298" cy="106" r="2.8" fill="#fff" opacity="0.46"/>
<circle cx="81" cy="153" r="0.8" fill="#fff" opacity="0.35"/>
<circle cx="164" cy="200" r="1.8" fill="#fff" opacity="0.24"/>
<circle cx="247" cy="247" r="2.8" fill="#fff" opacity="0.62"/>
<circle cx="30" cy="24" r="0.8" fill="#fff" opacity="0.51"/>
<circle cx="113" cy="71" r="1.8" fill="#fff" opacity="0.40"/>
<circle cx="196" cy="118" r="2.8" fill="#fff" opacity="0.29"/>
<circle cx="279" cy="165" r="0.8" fill="#fff" opacity="0.18"/>
<circle cx="62" cy="212" r="1.8" fill="#fff" opacity="0.57"/>
  <g transform="translate(0 6)" opacity="0.95">
    <path d="M150 30 L185 185 L260 330 L150 270 L40 330 L115 185 Z" fill="#ffffff" opacity="0.12"/>
    <path d="M150 30 L185 185 L260 330 L150 270 L40 330 L115 185 Z" fill="none" stroke="#ffffff" stroke-width="3" opacity="0.42"/>
  </g>
  <circle cx="240" cy="78" r="42" fill="#fff" opacity="0.12"/>
  <path d="M-20 356 C65 320 110 372 182 338 C230 315 260 300 330 335 L330 450 L-20 450 Z" fill="#000" opacity="0.28"/>
  <rect width="300" height="450" fill="url(#shade)"/>
  <rect width="300" height="450" filter="url(#grain)" opacity="0.45"/>
  <text x="150" y="278" text-anchor="middle" font-family="Arial, sans-serif" font-size="10" font-weight="700" letter-spacing="2.5" fill="#ffffff" opacity="0.75">TOMOVERSO ORIGINAL</text>
  <text x="150" y="305" text-anchor="middle" font-family="Georgia, serif" font-size="24" font-weight="800" fill="#ffffff">Zero Vida Extra</text>
  <text x="150" y="420" text-anchor="middle" font-family="Arial, sans-serif" font-size="10" font-weight="700" letter-spacing="1.8" fill="#ffffff" opacity="0.72">AÇÃO</text>
</svg>