<?xml version="1.0" encoding="UTF-8"?>
<svg xmlns="http://www.w3.org/2000/svg" width="600" height="900" viewBox="0 0 600 900" role="img" aria-label="A World Worth Protecting">
  <defs>
    <linearGradient id="bg" x1="0" x2="1" y1="0" y2="1">
      <stop offset="0%" stop-color="#0f172a"/>
      <stop offset="58%" stop-color="#065f46"/>
      <stop offset="100%" stop-color="#09090b"/>
    </linearGradient>
    <radialGradient id="glow" cx="50%" cy="35%" r="70%">
      <stop offset="0%" stop-color="#34d399" stop-opacity="0.36"/>
      <stop offset="65%" stop-color="#34d399" stop-opacity="0.04"/>
      <stop offset="100%" stop-color="#000" stop-opacity="0"/>
    </radialGradient>
    <filter id="blur"><feGaussianBlur stdDeviation="24"/></filter>
  </defs>
  <rect width="600" height="900" fill="url(#bg)"/>
  <rect width="600" height="900" fill="url(#glow)"/>
  <circle cx="226" cy="120" r="190" fill="#34d399" opacity="0.10" filter="url(#blur)"/>
  <circle cx="520" cy="406" r="150" fill="#bbf7d0" opacity="0.08" filter="url(#blur)"/>
  <path d="M0 760 C120 700 190 830 300 780 C424 724 486 780 600 724 V900 H0Z" fill="#000" opacity="0.28"/>
  <g opacity="0.20" stroke="#fff" stroke-width="1">
    <path d="M-80 0 L-240 900"/>
    <path d="M12 0 L-148 900"/>
    <path d="M104 0 L-56 900"/>
    <path d="M196 0 L36 900"/>
    <path d="M288 0 L128 900"/>
    <path d="M380 0 L220 900"/>
    <path d="M472 0 L312 900"/>
    <path d="M564 0 L404 900"/>
    <path d="M656 0 L496 900"/>
  </g>
  <g transform="translate(40 96)">
    <rect x="0" y="0" width="520" height="520" rx="36" fill="#000" opacity="0.18"/>
    <g transform="translate(0 18)"><path fill="none" stroke="#34d399" stroke-width="5" stroke-linecap="round" stroke-linejoin="round" opacity="0.92" d="M330 130 L190 350"/><path fill="none" stroke="#34d399" stroke-width="5" stroke-linecap="round" stroke-linejoin="round" opacity="0.92" d="M350 152 L372 174 L232 394 L190 350 Z"/><path fill="none" stroke="#34d399" stroke-width="5" stroke-linecap="round" stroke-linejoin="round" opacity="0.92" d="M164 374 L220 318"/><path fill="none" stroke="#34d399" stroke-width="5" stroke-linecap="round" stroke-linejoin="round" opacity="0.92" d="M142 398 L190 350 L238 398"/></g>
  </g>
  <rect x="34" y="34" width="532" height="832" rx="34" fill="none" stroke="#fff" stroke-opacity="0.18" stroke-width="2"/>
  <text x="48" y="580" font-family="Inter, Arial, sans-serif" font-size="16" font-weight="800" fill="#bbf7d0" letter-spacing="4">TOMOVERSO · LIGHT NOVEL</text>
  <text x="48" y="630" font-family="Georgia, 'Times New Roman', serif" font-size="38" font-weight="800" fill="#fff" letter-spacing="-1">A World Worth</text>
<text x="48" y="676" font-family="Georgia, 'Times New Roman', serif" font-size="38" font-weight="800" fill="#fff" letter-spacing="-1">Protecting</text>
  <text x="48" y="840" font-family="Inter, Arial, sans-serif" font-size="22" font-weight="700" fill="#34d399">Light Novel</text>
</svg>