<?xml version="1.0" encoding="UTF-8"?>
<svg xmlns="http://www.w3.org/2000/svg" width="600" height="900" viewBox="0 0 600 900" role="img" aria-label="Apocalypse Hunter">
  <defs>
    <linearGradient id="bg" x1="0" x2="1" y1="0" y2="1">
      <stop offset="0%" stop-color="#1c1917"/>
      <stop offset="58%" stop-color="#854d0e"/>
      <stop offset="100%" stop-color="#09090b"/>
    </linearGradient>
    <radialGradient id="glow" cx="50%" cy="35%" r="70%">
      <stop offset="0%" stop-color="#fde047" stop-opacity="0.36"/>
      <stop offset="65%" stop-color="#fde047" stop-opacity="0.04"/>
      <stop offset="100%" stop-color="#000" stop-opacity="0"/>
    </radialGradient>
    <filter id="blur"><feGaussianBlur stdDeviation="24"/></filter>
  </defs>
  <rect width="600" height="900" fill="url(#bg)"/>
  <rect width="600" height="900" fill="url(#glow)"/>
  <circle cx="204" cy="120" r="190" fill="#fde047" opacity="0.10" filter="url(#blur)"/>
  <circle cx="520" cy="324" r="150" fill="#fef3c7" opacity="0.08" filter="url(#blur)"/>
  <path d="M0 760 C120 700 190 830 300 780 C424 724 486 780 600 724 V900 H0Z" fill="#000" opacity="0.28"/>
  <g opacity="0.20" stroke="#fff" stroke-width="1">
    <path d="M-80 0 L-240 900"/>
    <path d="M12 0 L-148 900"/>
    <path d="M104 0 L-56 900"/>
    <path d="M196 0 L36 900"/>
    <path d="M288 0 L128 900"/>
    <path d="M380 0 L220 900"/>
    <path d="M472 0 L312 900"/>
    <path d="M564 0 L404 900"/>
    <path d="M656 0 L496 900"/>
  </g>
  <g transform="translate(40 96)">
    <rect x="0" y="0" width="520" height="520" rx="36" fill="#000" opacity="0.18"/>
    <g transform="translate(0 18)"><rect x="118" y="196" width="284" height="210" rx="24" fill="none" stroke="#fde047" stroke-width="5" stroke-linecap="round" stroke-linejoin="round" opacity="0.92"/><path fill="none" stroke="#fde047" stroke-width="5" stroke-linecap="round" stroke-linejoin="round" opacity="0.92" d="M160 252h120M160 304h200M160 356h150"/><circle cx="350" cy="252" r="18" fill="#fde047" opacity="0.8"/><path fill="none" stroke="#fde047" stroke-width="5" stroke-linecap="round" stroke-linejoin="round" opacity="0.92" d="M208 148h104M260 148v48"/></g>
  </g>
  <rect x="34" y="34" width="532" height="832" rx="34" fill="none" stroke="#fff" stroke-opacity="0.18" stroke-width="2"/>
  <text x="48" y="580" font-family="Inter, Arial, sans-serif" font-size="16" font-weight="800" fill="#fef3c7" letter-spacing="4">TOMOVERSO · LIGHT NOVEL</text>
  <text x="48" y="630" font-family="Georgia, 'Times New Roman', serif" font-size="38" font-weight="800" fill="#fff" letter-spacing="-1">Apocalypse Hunter</text>
  <text x="48" y="840" font-family="Inter, Arial, sans-serif" font-size="22" font-weight="700" fill="#fde047">Light Novel</text>
</svg>