<?xml version="1.0" encoding="UTF-8"?>
<svg xmlns="http://www.w3.org/2000/svg" width="600" height="900" viewBox="0 0 600 900" role="img" aria-label="Cosmic Professional Gladiator">
  <defs>
    <linearGradient id="bg" x1="0" x2="1" y1="0" y2="1">
      <stop offset="0%" stop-color="#2e1065"/>
      <stop offset="58%" stop-color="#831843"/>
      <stop offset="100%" stop-color="#09090b"/>
    </linearGradient>
    <radialGradient id="glow" cx="50%" cy="35%" r="70%">
      <stop offset="0%" stop-color="#f472b6" stop-opacity="0.36"/>
      <stop offset="65%" stop-color="#f472b6" stop-opacity="0.04"/>
      <stop offset="100%" stop-color="#000" stop-opacity="0"/>
    </radialGradient>
    <filter id="blur"><feGaussianBlur stdDeviation="24"/></filter>
  </defs>
  <rect width="600" height="900" fill="url(#bg)"/>
  <rect width="600" height="900" fill="url(#glow)"/>
  <circle cx="163" cy="120" r="190" fill="#f472b6" opacity="0.10" filter="url(#blur)"/>
  <circle cx="520" cy="463" r="150" fill="#fbcfe8" opacity="0.08" filter="url(#blur)"/>
  <path d="M0 760 C120 700 190 830 300 780 C424 724 486 780 600 724 V900 H0Z" fill="#000" opacity="0.28"/>
  <g opacity="0.20" stroke="#fff" stroke-width="1">
    <path d="M-80 0 L-240 900"/>
    <path d="M12 0 L-148 900"/>
    <path d="M104 0 L-56 900"/>
    <path d="M196 0 L36 900"/>
    <path d="M288 0 L128 900"/>
    <path d="M380 0 L220 900"/>
    <path d="M472 0 L312 900"/>
    <path d="M564 0 L404 900"/>
    <path d="M656 0 L496 900"/>
  </g>
  <g transform="translate(40 96)">
    <rect x="0" y="0" width="520" height="520" rx="36" fill="#000" opacity="0.18"/>
    <g transform="translate(0 18)"><path fill="#f472b6" opacity="0.86" d="M316 150c-70 22-120 86-120 162 0 66 38 123 94 151-12 3-25 5-38 5-93 0-168-75-168-168s75-168 168-168c22 0 43 4 64 18Z"/><circle cx="326" cy="268" r="92" fill="#fbcfe8" opacity="0.06"/></g>
  </g>
  <rect x="34" y="34" width="532" height="832" rx="34" fill="none" stroke="#fff" stroke-opacity="0.18" stroke-width="2"/>
  <text x="48" y="580" font-family="Inter, Arial, sans-serif" font-size="16" font-weight="800" fill="#fbcfe8" letter-spacing="4">TOMOVERSO · LIGHT NOVEL</text>
  <text x="48" y="630" font-family="Georgia, 'Times New Roman', serif" font-size="38" font-weight="800" fill="#fff" letter-spacing="-1">Cosmic</text>
<text x="48" y="676" font-family="Georgia, 'Times New Roman', serif" font-size="38" font-weight="800" fill="#fff" letter-spacing="-1">Professional</text>
<text x="48" y="722" font-family="Georgia, 'Times New Roman', serif" font-size="38" font-weight="800" fill="#fff" letter-spacing="-1">Gladiator</text>
  <text x="48" y="840" font-family="Inter, Arial, sans-serif" font-size="22" font-weight="700" fill="#f472b6">Light Novel</text>
</svg>